<svg width="32" height="32" viewBox="0 0 32 32" fill="none" xmlns="http://www.w3.org/2000/svg">
<g clip-path="url(#clip0_200_233)">
<path d="M23.975 2.58H8.555C7.455 2.58 6.565 3.51 6.565 4.67V27.33C6.565 28.48 7.455 29.42 8.555 29.42H23.975C25.075 29.42 25.965 28.49 25.965 27.33V4.67C25.965 3.52 25.075 2.58 23.975 2.58ZM16.045 6.38C15.375 6.38 14.835 5.81 14.835 5.11C14.835 4.41 15.375 3.84 16.045 3.84C16.715 3.84 17.255 4.41 17.255 5.11C17.255 5.81 16.715 6.38 16.045 6.38Z" fill="url(#paint0_linear_200_233)"/>
<path d="M23.915 2.64H8.64502C7.55502 2.64 6.67502 3.57 6.67502 4.72V27.23C6.67502 28.37 7.55502 29.3 8.64502 29.3H23.915C25.005 29.3 25.885 28.37 25.885 27.23V4.72C25.885 3.58 25.005 2.65 23.915 2.65V2.64ZM16.065 6.42C15.405 6.42 14.865 5.86 14.865 5.16C14.865 4.46 15.405 3.9 16.065 3.9C16.725 3.9 17.265 4.46 17.265 5.16C17.265 5.86 16.725 6.42 16.065 6.42Z" fill="url(#paint1_linear_200_233)"/>
<path d="M6.64499 27.36C6.64499 28.45 7.49499 29.33 8.55499 29.33H23.965C25.015 29.33 25.875 28.45 25.875 27.36V17.6H6.64499V27.36Z" fill="#8F323E"/>
<path d="M23.915 2.71H8.64502C7.55502 2.71 6.67502 3.59 6.67502 4.68V5.58H14.905C14.835 5.41 14.805 5.25 14.805 5.07C14.805 4.38 15.365 3.82 16.055 3.82C16.745 3.82 17.305 4.38 17.305 5.07C17.305 5.25 17.265 5.41 17.205 5.56H25.895V4.68C25.895 3.59 25.015 2.71 23.925 2.71H23.915Z" fill="#8F323E"/>
<path d="M21.935 6.03L21.675 6.56H21.595L21.835 6.07H21.505V6.01H21.925V6.03H21.935Z" fill="#444549"/>
<path d="M22.045 6.53V6.46C22.045 6.46 22.135 6.5 22.195 6.5C22.245 6.5 22.275 6.5 22.305 6.47C22.335 6.45 22.345 6.43 22.345 6.39C22.345 6.32 22.285 6.28 22.165 6.28H22.115V6.23H22.165C22.275 6.23 22.325 6.2 22.325 6.13C22.325 6.07 22.285 6.04 22.205 6.04C22.155 6.04 22.115 6.05 22.075 6.08V6.02C22.075 6.02 22.165 5.99 22.225 5.99C22.285 5.99 22.325 6 22.355 6.03C22.385 6.06 22.405 6.09 22.405 6.12C22.405 6.19 22.365 6.24 22.275 6.26C22.275 6.26 22.355 6.28 22.385 6.3C22.415 6.32 22.425 6.35 22.425 6.39C22.425 6.44 22.405 6.48 22.365 6.51C22.325 6.54 22.265 6.56 22.195 6.56C22.135 6.56 22.085 6.56 22.045 6.53Z" fill="#444549"/>
<path d="M22.555 6.54V6.47C22.555 6.47 22.645 6.51 22.695 6.51C22.745 6.51 22.775 6.5 22.805 6.48C22.835 6.46 22.845 6.43 22.845 6.39C22.845 6.35 22.835 6.33 22.805 6.31C22.775 6.29 22.735 6.28 22.685 6.28C22.665 6.28 22.635 6.28 22.585 6.28V6.01H22.905V6.07H22.655V6.23C22.655 6.23 22.695 6.23 22.715 6.23C22.785 6.23 22.835 6.24 22.875 6.27C22.915 6.3 22.935 6.34 22.935 6.39C22.935 6.44 22.915 6.49 22.875 6.52C22.835 6.55 22.775 6.57 22.705 6.57C22.645 6.57 22.595 6.57 22.565 6.55L22.555 6.54Z" fill="#444549"/>
<path d="M23.065 6.54V6.47C23.065 6.47 23.155 6.51 23.205 6.51C23.255 6.51 23.285 6.5 23.315 6.48C23.345 6.46 23.355 6.43 23.355 6.39C23.355 6.35 23.345 6.33 23.315 6.31C23.285 6.29 23.245 6.28 23.195 6.28C23.175 6.28 23.145 6.28 23.095 6.28V6.01H23.415V6.07H23.165V6.23C23.165 6.23 23.205 6.23 23.225 6.23C23.295 6.23 23.345 6.24 23.385 6.27C23.425 6.3 23.445 6.34 23.445 6.39C23.445 6.44 23.425 6.49 23.385 6.52C23.345 6.55 23.285 6.57 23.215 6.57C23.155 6.57 23.105 6.57 23.075 6.55L23.065 6.54Z" fill="#444549"/>
<path d="M23.915 6.01V6.07C23.915 6.07 23.845 6.05 23.805 6.05C23.745 6.05 23.705 6.07 23.665 6.11C23.625 6.15 23.615 6.21 23.615 6.28C23.645 6.23 23.695 6.2 23.765 6.2C23.825 6.2 23.865 6.22 23.905 6.25C23.935 6.28 23.955 6.32 23.955 6.37C23.955 6.42 23.935 6.47 23.895 6.5C23.855 6.53 23.805 6.55 23.745 6.55C23.675 6.55 23.625 6.53 23.595 6.48C23.565 6.43 23.535 6.38 23.535 6.3C23.535 6.2 23.555 6.13 23.605 6.07C23.655 6.01 23.715 5.98 23.795 5.98C23.845 5.98 23.875 5.98 23.905 6L23.915 6.01ZM23.755 6.26C23.755 6.26 23.685 6.27 23.665 6.29C23.645 6.31 23.625 6.34 23.625 6.37C23.625 6.41 23.635 6.44 23.665 6.47C23.685 6.5 23.725 6.51 23.755 6.51C23.785 6.51 23.825 6.5 23.845 6.48C23.865 6.46 23.875 6.43 23.875 6.39C23.875 6.35 23.865 6.32 23.845 6.3C23.825 6.28 23.795 6.27 23.755 6.27V6.26Z" fill="#444549"/>
<path d="M24.235 6.56C24.175 6.56 24.115 6.54 24.085 6.49C24.045 6.44 24.035 6.38 24.035 6.29C24.035 6.19 24.055 6.12 24.095 6.07C24.135 6.02 24.185 6 24.255 6C24.395 6 24.455 6.09 24.455 6.28C24.455 6.37 24.435 6.44 24.395 6.49C24.355 6.54 24.305 6.56 24.235 6.56ZM24.245 6.05C24.155 6.05 24.105 6.13 24.105 6.29C24.105 6.44 24.155 6.51 24.245 6.51C24.335 6.51 24.385 6.43 24.385 6.28C24.385 6.13 24.345 6.05 24.255 6.05H24.245Z" fill="#444549"/>
<path d="M24.675 6.27C24.595 6.24 24.555 6.19 24.555 6.14C24.555 6.1 24.575 6.07 24.605 6.04C24.645 6.01 24.685 6 24.745 6C24.795 6 24.835 6.01 24.875 6.04C24.905 6.06 24.925 6.09 24.925 6.13C24.925 6.19 24.885 6.24 24.805 6.27C24.905 6.3 24.945 6.35 24.945 6.42C24.945 6.47 24.925 6.5 24.885 6.53C24.845 6.56 24.795 6.57 24.725 6.57C24.665 6.57 24.625 6.56 24.585 6.53C24.545 6.5 24.535 6.47 24.535 6.43C24.535 6.36 24.585 6.31 24.675 6.28V6.27ZM24.735 6.3C24.655 6.33 24.615 6.37 24.615 6.42C24.615 6.45 24.625 6.47 24.655 6.49C24.685 6.51 24.715 6.52 24.755 6.52C24.795 6.52 24.825 6.52 24.845 6.49C24.865 6.46 24.885 6.45 24.885 6.43C24.885 6.38 24.845 6.33 24.755 6.31L24.735 6.3ZM24.855 6.13C24.855 6.13 24.855 6.09 24.825 6.07C24.805 6.06 24.785 6.05 24.745 6.05C24.715 6.05 24.685 6.05 24.665 6.07C24.645 6.09 24.635 6.1 24.635 6.13C24.635 6.18 24.675 6.21 24.745 6.24C24.815 6.22 24.855 6.18 24.855 6.13Z" fill="#444549"/>
<path d="M20.805 29.08H22.295L23.185 27.22H21.705L20.805 29.08Z" fill="url(#paint2_linear_200_233)"/>
<path d="M9.435 29.08H9.825L10.715 27.22H10.325L9.435 29.08Z" fill="url(#paint3_linear_200_233)"/>
<path d="M14.495 29.08H14.685L15.585 27.22H15.395L14.495 29.08Z" fill="url(#paint4_linear_200_233)"/>
<path d="M14.125 29.08H14.315L15.205 27.22H15.015L14.125 29.08Z" fill="url(#paint5_linear_200_233)"/>
<path d="M12.815 29.08H13.015L13.905 27.22H13.715L12.815 29.08Z" fill="url(#paint6_linear_200_233)"/>
<path d="M25.685 27.22H24.915L24.025 29.06C24.925 28.94 25.625 28.17 25.685 27.22Z" fill="url(#paint7_linear_200_233)"/>
<path d="M8.12499 29L8.98499 27.22H7.50499L7.05499 28.15C7.29499 28.55 7.67499 28.86 8.12499 29Z" fill="url(#paint8_linear_200_233)"/>
<path d="M18.185 29.08H19.665L20.565 27.22H19.075L18.185 29.08Z" fill="url(#paint9_linear_200_233)"/>
<path d="M15.335 29.08H17.845L18.735 27.22H16.225L15.335 29.08Z" fill="url(#paint10_linear_200_233)"/>
<path d="M24.805 15.47H24.635V17.35H24.805V15.47Z" fill="#444549"/>
<path d="M24.385 15.47H24.215V17.35H24.385V15.47Z" fill="#444549"/>
<path d="M23.945 15.47H23.775V17.35H23.945V15.47Z" fill="#444549"/>
<path d="M13.275 4.01C13.275 4.01 13.255 3.99 13.255 3.98C13.255 3.98 13.235 3.96 13.225 3.96C13.225 3.96 13.205 3.95 13.195 3.94C13.195 3.94 13.245 3.92 13.265 3.91C13.285 3.9 13.305 3.88 13.315 3.87C13.325 3.85 13.335 3.84 13.345 3.81C13.345 3.79 13.355 3.77 13.355 3.74C13.355 3.71 13.355 3.68 13.335 3.66C13.325 3.64 13.305 3.62 13.285 3.6C13.265 3.58 13.245 3.57 13.215 3.56C13.185 3.56 13.155 3.55 13.125 3.55H12.915V4.27H12.995V3.97H13.065C13.065 3.97 13.095 3.97 13.105 3.97C13.115 3.97 13.125 3.97 13.135 3.99C13.145 3.99 13.155 4.01 13.165 4.02C13.175 4.03 13.185 4.05 13.195 4.07L13.315 4.27H13.415L13.285 4.05C13.285 4.05 13.265 4.02 13.255 4.01H13.275ZM13.185 3.87C13.185 3.87 13.145 3.87 13.125 3.87H13.015V3.61H13.125C13.125 3.61 13.205 3.62 13.235 3.64C13.255 3.66 13.275 3.69 13.275 3.73C13.275 3.75 13.275 3.77 13.265 3.79C13.265 3.81 13.245 3.82 13.235 3.83C13.225 3.84 13.205 3.85 13.185 3.86V3.87Z" fill="#CBC4B5"/>
<path d="M11.605 3.94H11.865V3.86H11.605V3.62H11.885V3.55H11.515V4.26H11.895V4.19H11.605V3.94Z" fill="#CBC4B5"/>
<path d="M10.015 3.62H10.225V4.26H10.315V3.62H10.515V3.55H10.015V3.62Z" fill="#CBC4B5"/>
<path d="M8.935 4.05C8.935 4.05 8.935 4.13 8.935 4.16C8.935 4.16 8.925 4.14 8.905 4.11L8.545 3.55H8.435V4.27H8.515V3.75C8.515 3.7 8.515 3.67 8.515 3.65C8.515 3.65 8.525 3.68 8.535 3.69L8.905 4.26H9.005V3.54H8.925V4.04L8.935 4.05Z" fill="#CBC4B5"/>
<path d="M16.245 3.83L16.295 3.68C16.295 3.68 16.295 3.65 16.305 3.63C16.305 3.63 16.305 3.67 16.315 3.68L16.385 3.87C16.385 3.87 16.455 3.9 16.495 3.91L16.355 3.54H16.265L16.165 3.81C16.165 3.81 16.215 3.81 16.245 3.83Z" fill="#CBC4B5"/>
<path d="M7.35499 3.55H7.27499V4.27H7.35499V3.55Z" fill="#CBC4B5"/>
<path d="M20.445 3.53C20.335 3.53 20.255 3.56 20.195 3.63C20.135 3.7 20.105 3.79 20.105 3.91C20.105 4.02 20.135 4.1 20.195 4.17C20.255 4.24 20.335 4.27 20.435 4.27C20.535 4.27 20.625 4.24 20.685 4.17C20.745 4.1 20.775 4.01 20.775 3.89C20.775 3.78 20.745 3.7 20.685 3.63C20.625 3.56 20.545 3.53 20.445 3.53ZM20.615 4.12C20.565 4.17 20.505 4.2 20.425 4.2C20.355 4.2 20.295 4.17 20.245 4.12C20.195 4.07 20.175 4 20.175 3.91C20.175 3.82 20.195 3.75 20.245 3.7C20.295 3.65 20.355 3.62 20.425 3.62C20.495 3.62 20.565 3.65 20.605 3.7C20.645 3.75 20.675 3.82 20.675 3.92C20.675 4.02 20.655 4.08 20.605 4.14L20.615 4.12Z" fill="#CBC4B5"/>
<path d="M23.655 3.55L23.385 4.27H23.475L23.545 4.07H23.845L23.925 4.27H24.015L23.735 3.55H23.645H23.655ZM23.565 3.99L23.675 3.68C23.675 3.68 23.675 3.65 23.685 3.63C23.685 3.63 23.685 3.67 23.695 3.68L23.805 3.99H23.555H23.565Z" fill="#CBC4B5"/>
<path d="M25.095 4.19V3.55H25.005V4.26H25.375V4.19H25.095Z" fill="#CBC4B5"/>
<path d="M22.295 4.05C22.295 4.05 22.295 4.13 22.295 4.16C22.295 4.16 22.285 4.14 22.265 4.11L21.905 3.55H21.795V4.27H21.875V3.75C21.875 3.7 21.875 3.67 21.875 3.65C21.875 3.65 21.885 3.68 21.895 3.69L22.265 4.26H22.365V3.54H22.285V4.04L22.295 4.05Z" fill="#CBC4B5"/>
<path d="M19.065 3.55H18.985V4.27H19.065V3.55Z" fill="#CBC4B5"/>
<path d="M14.535 3.69L14.905 4.26H15.005V3.54H14.925V4.04C14.925 4.04 14.925 4.12 14.925 4.15C14.925 4.15 14.915 4.13 14.895 4.1L14.535 3.54H14.425V4.26H14.505V3.74C14.505 3.69 14.505 3.66 14.505 3.64C14.505 3.64 14.515 3.67 14.525 3.68L14.535 3.69Z" fill="#CBC4B5"/>
<path d="M17.485 3.62H17.685V4.26H17.775V3.62H17.985V3.55H17.485V3.62Z" fill="#CBC4B5"/>
<path d="M16.055 3.89C15.365 3.89 14.805 4.46 14.805 5.15C14.805 5.84 15.365 6.41 16.055 6.41C16.745 6.41 17.305 5.84 17.305 5.15C17.305 4.46 16.745 3.89 16.055 3.89ZM16.055 6.36C15.395 6.36 14.865 5.82 14.865 5.15C14.865 4.48 15.395 3.94 16.055 3.94C16.715 3.94 17.245 4.48 17.245 5.15C17.245 5.82 16.715 6.36 16.055 6.36Z" fill="url(#paint11_linear_200_233)"/>
<path d="M25.705 23.16V16.56C25.095 16.63 24.375 16.72 23.555 16.85C22.245 17.05 21.665 17.32 20.315 19.17C18.585 21.54 13.335 19.96 12.625 18.89C12.185 18.24 11.885 16.48 10.705 16.49C8.435 16.51 7.415 13.94 6.905 14.06V18.68C6.905 20.16 7.765 21.63 8.835 21.97L23.775 25.23C24.845 25.57 25.705 24.64 25.705 23.16Z" fill="url(#paint12_linear_200_233)"/>
<path d="M11.005 24.43L10.495 22.38L10.515 26.48H9.36499V19.63H10.675L11.435 22.36L12.185 19.63H13.455V26.48L12.355 26.51L12.315 22.49L11.825 24.43H10.995H11.005Z" fill="#ECE2CC"/>
<path d="M17.455 26.48L17.215 24.85H15.915L15.635 26.48H14.395L15.695 19.63H17.455L18.765 26.48H17.465H17.455ZM17.035 23.67L16.605 20.79L16.115 23.67H17.035Z" fill="#ECE2CC"/>
<path d="M19.625 26.48V19.63H21.565C22.155 19.63 22.615 19.78 22.945 20.09C23.275 20.4 23.445 20.86 23.445 21.49V22.57C23.445 23.19 23.285 23.64 22.965 23.92C22.645 24.21 22.185 24.35 21.575 24.35H20.975V26.48H19.635H19.625ZM20.965 23.18H21.475C21.665 23.18 21.805 23.13 21.895 23.02C21.985 22.91 22.035 22.71 22.035 22.41V21.61C22.035 21.3 21.985 21.09 21.895 20.98C21.805 20.87 21.665 20.81 21.475 20.81H20.965V23.18Z" fill="#ECE2CC"/>
<path d="M9.67501 19.33C9.55501 19.33 9.47501 19.3 9.41501 19.24C9.35501 19.18 9.32501 19.1 9.32501 18.98V18.63C9.32501 18.51 9.35501 18.43 9.41501 18.37C9.47501 18.31 9.55501 18.28 9.67501 18.28C9.79501 18.28 9.87501 18.31 9.92501 18.37C9.97501 18.43 10.005 18.52 10.015 18.65H9.77501C9.77501 18.58 9.76501 18.53 9.75501 18.5C9.74501 18.47 9.71501 18.46 9.67501 18.46C9.63501 18.46 9.60501 18.47 9.59501 18.5C9.58501 18.53 9.57501 18.58 9.57501 18.65V18.95C9.57501 19.02 9.57501 19.07 9.59501 19.1C9.61501 19.13 9.63501 19.14 9.67501 19.14C9.71501 19.14 9.73501 19.13 9.74501 19.1C9.75501 19.08 9.76501 19.02 9.77501 18.94H10.015C10.015 19.08 9.98501 19.17 9.92501 19.23C9.87501 19.29 9.78501 19.32 9.67501 19.32V19.33Z" fill="#ECE2CC"/>
<path d="M11.285 19.33C11.185 19.33 11.095 19.3 11.045 19.24C10.985 19.18 10.965 19.1 10.965 19V18.63C10.965 18.52 10.995 18.44 11.045 18.38C11.105 18.32 11.185 18.29 11.285 18.29C11.385 18.29 11.475 18.32 11.525 18.38C11.585 18.44 11.605 18.52 11.605 18.63V19C11.605 19.1 11.575 19.19 11.525 19.24C11.465 19.3 11.385 19.33 11.285 19.33ZM11.285 19.15C11.285 19.15 11.345 19.14 11.355 19.11C11.365 19.09 11.375 19.04 11.375 18.97V18.64C11.375 18.57 11.375 18.52 11.355 18.49C11.345 18.46 11.315 18.45 11.285 18.45C11.255 18.45 11.225 18.46 11.215 18.49C11.205 18.52 11.195 18.56 11.195 18.64V18.97C11.195 19.04 11.195 19.09 11.215 19.11C11.225 19.13 11.255 19.15 11.285 19.15Z" fill="#ECE2CC"/>
<path d="M12.845 19.01L12.755 18.66L12.785 19.32H12.575V18.3H12.785L12.915 18.77L13.045 18.3H13.245V19.32H13.035L13.065 18.68L12.985 19.02H12.845V19.01Z" fill="#ECE2CC"/>
<path d="M14.475 19.01L14.385 18.66L14.415 19.32H14.205V18.3H14.415L14.545 18.77L14.675 18.3H14.875V19.32H14.665L14.695 18.68L14.615 19.02H14.475V19.01Z" fill="#ECE2CC"/>
<path d="M16.165 19.33C16.055 19.33 15.965 19.3 15.915 19.24C15.865 19.18 15.835 19.09 15.835 18.96V18.3H16.075V18.96C16.075 19.03 16.075 19.08 16.095 19.1C16.105 19.13 16.135 19.14 16.165 19.14C16.195 19.14 16.225 19.13 16.235 19.1C16.245 19.07 16.255 19.03 16.255 18.96V18.3H16.495V18.96C16.495 19.08 16.465 19.18 16.415 19.24C16.365 19.3 16.275 19.33 16.165 19.33Z" fill="#ECE2CC"/>
<path d="M17.865 19.32L17.675 18.63V19.32H17.475V18.3H17.725L17.935 19.02V18.3H18.135V19.32H17.865Z" fill="#ECE2CC"/>
<path d="M19.095 19.32V19.14H19.305V18.47H19.095V18.29H19.755V18.47H19.545V19.14H19.755V19.32H19.095Z" fill="#ECE2CC"/>
<path d="M20.945 19.32V18.48H20.715V18.3H21.415V18.48H21.185V19.32H20.945Z" fill="#ECE2CC"/>
<path d="M22.805 19.32H22.565V18.94L22.315 18.31H22.545L22.675 18.71L22.815 18.31H23.045L22.795 18.94V19.32H22.805Z" fill="#ECE2CC"/>
<path d="M13.935 12.86C14.045 12.95 14.165 12.98 14.205 13.1C14.255 13.26 14.165 13.34 14.085 13.47C14.035 13.54 14.025 13.68 13.955 13.73C13.885 13.78 13.735 13.84 13.655 13.8C13.225 13.59 12.865 13.38 12.445 13.15L12.495 13.29C12.495 13.29 12.435 13.39 12.425 13.43C12.395 13.72 12.105 14 11.795 13.9C11.435 13.79 11.235 13.39 11.295 13.02C11.355 12.65 11.725 12.03 12.075 12.11C12.165 12.13 12.205 12.25 12.245 12.33C12.625 12.68 13.055 12.97 13.525 13.22C13.395 12.87 13.165 12.58 13.185 12.22C13.195 11.99 13.315 11.74 13.485 11.61C14.045 11.16 14.805 11.91 15.105 12.4C15.135 12.11 15.255 11.89 15.425 11.66C15.545 11.5 15.945 10.99 16.175 11.17C16.225 11.36 16.005 11.45 15.875 11.54C15.655 11.69 15.485 11.92 15.545 12.18C15.645 12.6 16.565 12.6 16.905 12.59L17.745 12.56C17.645 12.84 17.445 12.9 17.205 12.93C16.585 13 15.825 13.03 15.265 12.71C15.365 12.96 15.095 13.11 15.025 13.11C14.865 13.1 14.825 12.48 14.185 12.07C14.005 11.95 13.795 11.85 13.585 11.95L13.775 12H13.585C13.445 12.02 13.735 12.69 13.925 12.84L13.935 12.86ZM12.055 13.53C12.025 13.23 11.945 12.99 11.745 12.76C11.615 13.06 11.775 13.39 12.055 13.53Z" fill="black"/>
<path d="M9.32499 14.45L8.27499 14.15L7.75499 13.99C7.68499 13.97 7.65499 13.91 7.66499 13.85C7.67499 13.77 7.72499 13.75 7.81499 13.76L9.26499 14.06C9.68499 14.15 10.555 14.26 10.875 13.92C10.655 13.45 9.96499 12.93 9.53499 12.64L8.93499 12.22C8.62499 12.01 8.32499 11.8 8.04499 11.55C7.71499 11.26 7.68499 10.8 7.98499 10.46C8.25499 10.15 8.67499 10 9.07499 9.97C9.50499 9.94 9.90499 9.98 10.235 10.29C10.315 10.36 10.365 10.49 10.345 10.58C10.305 10.71 10.225 10.8 10.095 10.84C9.70499 10.14 8.63499 10.36 8.08499 10.75C7.93499 11.05 8.41499 11.5 8.64499 11.64C9.25499 12.02 9.86499 12.37 10.455 12.79C10.695 12.97 10.905 13.16 11.075 13.4C11.315 13.73 11.225 14.15 10.885 14.38C10.575 14.59 10.195 14.62 9.82499 14.59C9.64499 14.57 9.49499 14.51 9.31499 14.46L9.32499 14.45Z" fill="black"/>
<path d="M22.275 10.81L22.435 11.56C22.465 11.7 22.435 11.84 22.355 11.93C22.295 12.01 22.095 12.13 22.015 12.06C21.805 11.77 21.715 11.46 21.445 11.21L21.525 12.17C21.545 12.39 21.365 12.63 21.125 12.6L20.865 11.87C20.785 11.65 20.755 11.43 21.005 11.3C21.035 11.06 21.115 10.82 21.295 10.65C21.445 10.51 21.615 10.59 21.755 10.75C21.925 10.56 22.065 9.99 22.415 10.06C22.635 10.1 22.815 10.28 22.965 10.46C23.605 11.24 24.075 12.11 24.495 13.02L24.425 13.24C24.315 13.21 24.265 13.17 24.215 13.07L24.055 13L23.285 11.71C23.065 11.35 22.665 10.73 22.285 10.52L22.315 10.69C22.315 10.69 22.275 10.77 22.275 10.79V10.81Z" fill="black"/>
<path d="M18.045 12.12L17.785 11.34C17.785 11.34 17.635 11.34 17.595 11.36C17.295 11.48 16.535 11.61 16.375 11.29C16.485 11.01 17.165 11.24 17.645 10.97L17.305 10.23C17.255 10.11 17.135 10 17.045 9.9C16.985 9.84 17.065 9.62 17.125 9.58H17.365L17.685 10.11C17.825 10.34 17.905 10.55 18.035 10.81C18.285 10.76 18.325 10.54 18.495 10.56C18.715 10.58 18.345 11.03 18.155 11.1L18.595 12.34C18.625 12.43 18.595 12.56 18.545 12.61C18.495 12.66 18.385 12.7 18.305 12.68C18.215 12.51 18.125 12.32 18.065 12.13L18.045 12.12Z" fill="black"/>
<path d="M19.175 11.07C19.355 11.04 19.265 11.6 19.585 12.16C19.685 12.34 19.955 12.5 20.075 12.39C20.105 12.36 20.125 12.27 20.125 12.21C20.125 11.78 19.965 11.39 19.735 11.03C19.655 10.91 19.235 10.36 19.505 10.26C19.575 10.23 19.685 10.26 19.755 10.32C20.155 10.72 20.425 11.24 20.505 11.81C20.565 12.24 20.265 12.77 19.785 12.76C19.165 12.76 18.965 11.88 18.915 11.4C18.905 11.26 19.025 11.09 19.175 11.07Z" fill="black"/>
</g>
<defs>
<linearGradient id="paint0_linear_200_233" x1="25.325" y1="3.11" x2="7.205" y2="28.89" gradientUnits="userSpaceOnUse">
<stop stop-color="#FDFAF1"/>
<stop offset="1" stop-color="#A29885"/>
</linearGradient>
<linearGradient id="paint1_linear_200_233" x1="25.275" y1="3.18" x2="7.28502" y2="28.77" gradientUnits="userSpaceOnUse">
<stop stop-color="#FFFBEC"/>
<stop offset="1" stop-color="#E1D1B7"/>
</linearGradient>
<linearGradient id="paint2_linear_200_233" x1="20.805" y1="28.15" x2="23.185" y2="28.15" gradientUnits="userSpaceOnUse">
<stop stop-color="#FFFBEC"/>
<stop offset="1" stop-color="#EFE6D2"/>
</linearGradient>
<linearGradient id="paint3_linear_200_233" x1="9.435" y1="2.57999" x2="10.715" y2="2.57999" gradientUnits="userSpaceOnUse">
<stop stop-color="#FFFBEC"/>
<stop offset="1" stop-color="#EFE6D2"/>
</linearGradient>
<linearGradient id="paint4_linear_200_233" x1="14.495" y1="2.57999" x2="15.585" y2="2.57999" gradientUnits="userSpaceOnUse">
<stop stop-color="#FFFBEC"/>
<stop offset="1" stop-color="#EFE6D2"/>
</linearGradient>
<linearGradient id="paint5_linear_200_233" x1="14.125" y1="2.57999" x2="15.205" y2="2.57999" gradientUnits="userSpaceOnUse">
<stop stop-color="#FFFBEC"/>
<stop offset="1" stop-color="#EFE6D2"/>
</linearGradient>
<linearGradient id="paint6_linear_200_233" x1="12.815" y1="2.57999" x2="13.905" y2="2.57999" gradientUnits="userSpaceOnUse">
<stop stop-color="#FFFBEC"/>
<stop offset="1" stop-color="#EFE6D2"/>
</linearGradient>
<linearGradient id="paint7_linear_200_233" x1="24.025" y1="28.14" x2="25.685" y2="28.14" gradientUnits="userSpaceOnUse">
<stop stop-color="#FFFBEC"/>
<stop offset="1" stop-color="#EFE6D2"/>
</linearGradient>
<linearGradient id="paint8_linear_200_233" x1="7.05499" y1="28.11" x2="8.97499" y2="28.11" gradientUnits="userSpaceOnUse">
<stop stop-color="#FFFBEC"/>
<stop offset="1" stop-color="#EFE6D2"/>
</linearGradient>
<linearGradient id="paint9_linear_200_233" x1="18.185" y1="2.57999" x2="20.565" y2="2.57999" gradientUnits="userSpaceOnUse">
<stop stop-color="#FFFBEC"/>
<stop offset="1" stop-color="#EFE6D2"/>
</linearGradient>
<linearGradient id="paint10_linear_200_233" x1="15.335" y1="2.57999" x2="18.735" y2="2.57999" gradientUnits="userSpaceOnUse">
<stop stop-color="#FFFBEC"/>
<stop offset="1" stop-color="#EFE6D2"/>
</linearGradient>
<linearGradient id="paint11_linear_200_233" x1="15.255" y1="6.46" x2="16.845" y2="3.84" gradientUnits="userSpaceOnUse">
<stop stop-color="#FDFAF1"/>
<stop offset="1" stop-color="#A29885"/>
</linearGradient>
<linearGradient id="paint12_linear_200_233" x1="-0.659867" y1="9.03999" x2="-2.94216" y2="16.5237" gradientUnits="userSpaceOnUse">
<stop stop-color="#FFFBEC" stop-opacity="0.3"/>
<stop offset="1" stop-color="#FFEDD0" stop-opacity="0"/>
</linearGradient>
<clipPath id="clip0_200_233">
<rect width="19.93" height="26.84" fill="white" transform="translate(6.035 2.58)"/>
</clipPath>
</defs>
</svg>
