<svg width="32" height="32" viewBox="0 0 32 32" fill="none" xmlns="http://www.w3.org/2000/svg">
<g clip-path="url(#clip0_200_234)">
<path d="M23.71 2.58H8.28999C7.18999 2.58 6.29999 3.51 6.29999 4.67V27.33C6.29999 28.48 7.18999 29.42 8.28999 29.42H23.71C24.81 29.42 25.7 28.49 25.7 27.33V4.67C25.7 3.52 24.81 2.58 23.71 2.58ZM15.78 6.38C15.11 6.38 14.57 5.81 14.57 5.11C14.57 4.41 15.11 3.84 15.78 3.84C16.45 3.84 16.99 4.41 16.99 5.11C16.99 5.81 16.45 6.38 15.78 6.38Z" fill="url(#paint0_linear_200_234)"/>
<path d="M23.65 2.64H8.37997C7.28997 2.64 6.40997 3.57 6.40997 4.72V27.23C6.40997 28.37 7.28997 29.3 8.37997 29.3H23.65C24.74 29.3 25.62 28.37 25.62 27.23V4.72C25.62 3.58 24.74 2.65 23.65 2.65V2.64ZM15.79 6.42C15.13 6.42 14.59 5.86 14.59 5.16C14.59 4.46 15.13 3.9 15.79 3.9C16.45 3.9 16.99 4.46 16.99 5.16C16.99 5.86 16.45 6.42 15.79 6.42Z" fill="url(#paint1_linear_200_234)"/>
<path d="M6.37 27.36C6.37 28.45 7.22 29.33 8.28 29.33H23.69C24.74 29.33 25.6 28.45 25.6 27.36V17.6H6.37V27.36Z" fill="#58595B"/>
<path d="M23.65 2.71H8.38C7.29 2.71 6.41 3.59 6.41 4.68V5.58H14.64C14.57 5.41 14.54 5.25 14.54 5.07C14.54 4.38 15.1 3.82 15.79 3.82C16.48 3.82 17.04 4.38 17.04 5.07C17.04 5.25 17 5.41 16.94 5.56H25.63V4.68C25.63 3.59 24.75 2.71 23.66 2.71H23.65Z" fill="#58595B"/>
<path d="M20.66 29.08H22.14L23.03 27.22H21.55L20.66 29.08Z" fill="url(#paint2_linear_200_234)"/>
<path d="M9.28 29.08H9.67L10.56 27.22H10.18L9.28 29.08Z" fill="url(#paint3_linear_200_234)"/>
<path d="M14.35 29.08H14.54L15.43 27.22H15.24L14.35 29.08Z" fill="url(#paint4_linear_200_234)"/>
<path d="M13.97 29.08H14.16L15.06 27.22H14.87L13.97 29.08Z" fill="url(#paint5_linear_200_234)"/>
<path d="M12.67 29.08H12.86L13.75 27.22H13.56L12.67 29.08Z" fill="url(#paint6_linear_200_234)"/>
<path d="M25.53 27.22H24.76L23.87 29.06C24.77 28.94 25.47 28.17 25.53 27.22Z" fill="url(#paint7_linear_200_234)"/>
<path d="M7.96999 29L8.82999 27.22H7.34999L6.89999 28.15C7.13999 28.55 7.51999 28.86 7.96999 29Z" fill="url(#paint8_linear_200_234)"/>
<path d="M18.03 29.08H19.52L20.41 27.22H18.93L18.03 29.08Z" fill="url(#paint9_linear_200_234)"/>
<path d="M15.18 29.08H17.69L18.58 27.22H16.07L15.18 29.08Z" fill="url(#paint10_linear_200_234)"/>
<path d="M24.53 15.47H24.36V17.35H24.53V15.47Z" fill="#444549"/>
<path d="M24.12 15.47H23.95V17.35H24.12V15.47Z" fill="#444549"/>
<path d="M23.67 15.47H23.5V17.35H23.67V15.47Z" fill="#444549"/>
<g opacity="0.71">
<path d="M13.01 4.01C13.01 4.01 12.99 3.99 12.99 3.98C12.99 3.98 12.97 3.96 12.96 3.96C12.96 3.96 12.94 3.95 12.93 3.94C12.93 3.94 12.98 3.92 13 3.91C13.02 3.9 13.04 3.88 13.05 3.87C13.06 3.85 13.07 3.84 13.08 3.81C13.08 3.79 13.09 3.77 13.09 3.74C13.09 3.71 13.09 3.68 13.07 3.66C13.06 3.64 13.04 3.62 13.02 3.6C13 3.58 12.98 3.57 12.95 3.56C12.92 3.56 12.89 3.55 12.86 3.55H12.65V4.27H12.73V3.97H12.8C12.8 3.97 12.83 3.97 12.84 3.97C12.85 3.97 12.86 3.97 12.87 3.99C12.88 3.99 12.89 4.01 12.9 4.02C12.91 4.03 12.92 4.05 12.93 4.07L13.05 4.27H13.15L13.02 4.05C13.02 4.05 13 4.02 12.99 4.01H13.01ZM12.92 3.87C12.92 3.87 12.88 3.87 12.86 3.87H12.75V3.61H12.86C12.86 3.61 12.94 3.62 12.97 3.64C12.99 3.66 13.01 3.69 13.01 3.73C13.01 3.75 13.01 3.77 13 3.79C13 3.81 12.98 3.82 12.97 3.83C12.96 3.84 12.94 3.85 12.92 3.86V3.87Z" fill="#CBC4B5"/>
<path d="M11.34 3.94H11.6V3.86H11.34V3.62H11.62V3.55H11.25V4.26H11.63V4.19H11.34V3.94Z" fill="#CBC4B5"/>
<path d="M9.74997 3.62H9.95997V4.26H10.04V3.62H10.25V3.55H9.74997V3.62Z" fill="#CBC4B5"/>
<path d="M8.66998 4.05C8.66998 4.05 8.66998 4.13 8.66998 4.16C8.66998 4.16 8.65998 4.14 8.63998 4.11L8.27998 3.55H8.16998V4.27H8.24998V3.75C8.24998 3.7 8.24998 3.67 8.24998 3.65C8.24998 3.65 8.25998 3.68 8.26998 3.69L8.63998 4.26H8.73998V3.54H8.65998V4.04L8.66998 4.05Z" fill="#CBC4B5"/>
<path d="M15.98 3.83L16.03 3.68C16.03 3.68 16.03 3.65 16.04 3.63C16.04 3.63 16.04 3.67 16.05 3.68L16.12 3.87C16.12 3.87 16.19 3.9 16.23 3.91L16.09 3.54H16L15.9 3.81C15.9 3.81 15.95 3.81 15.98 3.83Z" fill="#CBC4B5"/>
<path d="M7.08998 3.55H7.00998V4.27H7.08998V3.55Z" fill="#CBC4B5"/>
<path d="M20.18 3.53C20.07 3.53 19.99 3.56 19.93 3.63C19.87 3.7 19.84 3.79 19.84 3.91C19.84 4.02 19.87 4.1 19.93 4.17C19.99 4.24 20.07 4.27 20.17 4.27C20.27 4.27 20.36 4.24 20.42 4.17C20.48 4.1 20.51 4.01 20.51 3.89C20.51 3.78 20.48 3.7 20.42 3.63C20.36 3.56 20.28 3.53 20.18 3.53ZM20.35 4.12C20.3 4.17 20.24 4.2 20.16 4.2C20.09 4.2 20.03 4.17 19.98 4.12C19.93 4.07 19.91 4 19.91 3.91C19.91 3.82 19.93 3.75 19.98 3.7C20.03 3.65 20.09 3.62 20.16 3.62C20.23 3.62 20.3 3.65 20.34 3.7C20.38 3.75 20.41 3.82 20.41 3.92C20.41 4.02 20.39 4.08 20.34 4.14L20.35 4.12Z" fill="#CBC4B5"/>
<path d="M23.38 3.55L23.11 4.27H23.2L23.27 4.07H23.57L23.65 4.27H23.74L23.46 3.55H23.37H23.38ZM23.3 3.99L23.41 3.68C23.41 3.68 23.41 3.65 23.42 3.63C23.42 3.63 23.42 3.67 23.43 3.68L23.54 3.99H23.29H23.3Z" fill="#CBC4B5"/>
<path d="M24.83 4.19V3.55H24.74V4.26H25.11V4.19H24.83Z" fill="#CBC4B5"/>
<path d="M22.03 4.05C22.03 4.05 22.03 4.13 22.03 4.16C22.03 4.16 22.02 4.14 22 4.11L21.64 3.55H21.53V4.27H21.61V3.75C21.61 3.7 21.61 3.67 21.61 3.65C21.61 3.65 21.62 3.68 21.63 3.69L22 4.26H22.1V3.54H22.02V4.04L22.03 4.05Z" fill="#CBC4B5"/>
<path d="M18.8 3.55H18.72V4.27H18.8V3.55Z" fill="#CBC4B5"/>
<path d="M14.27 3.69L14.64 4.26H14.74V3.54H14.66V4.04C14.66 4.04 14.66 4.12 14.66 4.15C14.66 4.15 14.65 4.13 14.63 4.1L14.27 3.54H14.16V4.26H14.24V3.74C14.24 3.69 14.24 3.66 14.24 3.64C14.24 3.64 14.25 3.67 14.26 3.68L14.27 3.69Z" fill="#CBC4B5"/>
<path d="M17.22 3.62H17.42V4.26H17.51V3.62H17.71V3.55H17.22V3.62Z" fill="#CBC4B5"/>
</g>
<path d="M15.78 3.89C15.09 3.89 14.53 4.46 14.53 5.15C14.53 5.84 15.09 6.41 15.78 6.41C16.47 6.41 17.03 5.84 17.03 5.15C17.03 4.46 16.47 3.89 15.78 3.89ZM15.78 6.36C15.12 6.36 14.59 5.82 14.59 5.15C14.59 4.48 15.12 3.94 15.78 3.94C16.44 3.94 16.97 4.48 16.97 5.15C16.97 5.82 16.44 6.36 15.78 6.36Z" fill="url(#paint11_linear_200_234)"/>
<path d="M10.74 24.43L10.23 22.38L10.25 26.48H9.09998V19.63H10.41L11.17 22.36L11.92 19.63H13.19V26.48L12.09 26.51L12.05 22.49L11.56 24.43H10.73H10.74Z" fill="#ECE2CC"/>
<path d="M17.19 26.48L16.95 24.85H15.65L15.37 26.48H14.13L15.43 19.63H17.19L18.5 26.48H17.2H17.19ZM16.77 23.67L16.34 20.79L15.85 23.67H16.77Z" fill="#ECE2CC"/>
<path d="M19.36 26.48V19.63H21.3C21.89 19.63 22.35 19.78 22.68 20.09C23.01 20.4 23.18 20.86 23.18 21.49V22.57C23.18 23.19 23.02 23.64 22.7 23.92C22.38 24.21 21.92 24.35 21.31 24.35H20.71V26.48H19.37H19.36ZM20.7 23.18H21.21C21.4 23.18 21.54 23.13 21.63 23.02C21.72 22.91 21.77 22.71 21.77 22.41V21.61C21.77 21.3 21.72 21.09 21.63 20.98C21.54 20.87 21.4 20.81 21.21 20.81H20.7V23.18Z" fill="#ECE2CC"/>
<path d="M9.41 19.33C9.29 19.33 9.21 19.3 9.15 19.24C9.09 19.18 9.06 19.1 9.06 18.98V18.63C9.06 18.51 9.09 18.43 9.15 18.37C9.21 18.31 9.29 18.28 9.41 18.28C9.53 18.28 9.61 18.31 9.66 18.37C9.71 18.43 9.74 18.52 9.75 18.65H9.51C9.51 18.58 9.5 18.53 9.49 18.5C9.48 18.47 9.45 18.46 9.41 18.46C9.37 18.46 9.34 18.47 9.33 18.5C9.32 18.53 9.31 18.58 9.31 18.65V18.95C9.31 19.02 9.31 19.07 9.33 19.1C9.35 19.13 9.37 19.14 9.41 19.14C9.45 19.14 9.47 19.13 9.48 19.1C9.49 19.08 9.5 19.02 9.51 18.94H9.75C9.75 19.08 9.72 19.17 9.66 19.23C9.61 19.29 9.52 19.32 9.41 19.32V19.33Z" fill="#ECE2CC"/>
<path d="M11.01 19.33C10.91 19.33 10.82 19.3 10.77 19.24C10.71 19.18 10.69 19.1 10.69 19V18.63C10.69 18.52 10.72 18.44 10.77 18.38C10.83 18.32 10.91 18.29 11.01 18.29C11.11 18.29 11.2 18.32 11.25 18.38C11.31 18.44 11.33 18.52 11.33 18.63V19C11.33 19.1 11.3 19.19 11.25 19.24C11.19 19.3 11.11 19.33 11.01 19.33ZM11.01 19.15C11.01 19.15 11.07 19.14 11.08 19.11C11.09 19.09 11.1 19.04 11.1 18.97V18.64C11.1 18.57 11.1 18.52 11.08 18.49C11.07 18.46 11.04 18.45 11.01 18.45C10.98 18.45 10.95 18.46 10.94 18.49C10.93 18.52 10.92 18.56 10.92 18.64V18.97C10.92 19.04 10.92 19.09 10.94 19.11C10.95 19.13 10.98 19.15 11.01 19.15Z" fill="#ECE2CC"/>
<path d="M12.58 19.01L12.49 18.66L12.52 19.32H12.31V18.3H12.52L12.65 18.77L12.78 18.3H12.98V19.32H12.77L12.8 18.68L12.72 19.02H12.58V19.01Z" fill="#ECE2CC"/>
<path d="M14.21 19.01L14.12 18.66L14.15 19.32H13.94V18.3H14.15L14.28 18.77L14.41 18.3H14.61V19.32H14.4L14.43 18.68L14.35 19.02H14.21V19.01Z" fill="#ECE2CC"/>
<path d="M15.9 19.33C15.79 19.33 15.7 19.3 15.65 19.24C15.6 19.18 15.57 19.09 15.57 18.96V18.3H15.81V18.96C15.81 19.03 15.81 19.08 15.83 19.1C15.84 19.13 15.87 19.14 15.9 19.14C15.93 19.14 15.96 19.13 15.97 19.1C15.98 19.07 15.99 19.03 15.99 18.96V18.3H16.23V18.96C16.23 19.08 16.2 19.18 16.15 19.24C16.1 19.3 16.01 19.33 15.9 19.33Z" fill="#ECE2CC"/>
<path d="M17.59 19.32L17.4 18.63V19.32H17.2V18.3H17.45L17.66 19.02V18.3H17.86V19.32H17.59Z" fill="#ECE2CC"/>
<path d="M18.83 19.32V19.14H19.04V18.47H18.83V18.29H19.49V18.47H19.28V19.14H19.49V19.32H18.83Z" fill="#ECE2CC"/>
<path d="M20.67 19.32V18.48H20.44V18.3H21.14V18.48H20.91V19.32H20.67Z" fill="#ECE2CC"/>
<path d="M22.54 19.32H22.3V18.94L22.05 18.31H22.28L22.41 18.71L22.55 18.31H22.78L22.53 18.94V19.32H22.54Z" fill="#ECE2CC"/>
<path opacity="0.71" d="M23.5 7.7H8.52998C7.45998 7.7 6.59998 8.61 6.59998 9.73V23.32C8.95998 23.3 9.00998 24.22 11.34 24.48C17.53 25.15 12.98 22.95 16.64 22.85L17.76 24.9C17.94 24.9 18.1 25.03 18.13 25.21L18.41 24.32C18.54 23.9 19.18 24.04 19.12 24.48C18.95 25.77 20.62 26.84 20.66 26.84L21.36 26.67C21.44 26.67 21.5 26.73 21.5 26.81V27.48C24.29 27 21.4 25.67 23.77 26.36L23.88 26.39L24.58 26.14C24.58 25.74 24.91 25.38 25.3 25.34L25.38 23.24L25.44 9.73C25.44 8.61 24.57 7.7 23.51 7.7H23.5ZM15.8 11.41C15.15 11.41 14.63 10.86 14.63 10.18C14.63 9.5 15.16 8.95 15.8 8.95C16.44 8.95 16.97 9.5 16.97 10.18C16.97 10.86 16.44 11.41 15.8 11.41Z" fill="url(#paint12_radial_200_234)"/>
<path d="M9.01998 10.56C9.03998 11.56 9.19998 12.11 9.22998 13.06C9.22998 13.08 9.25998 13.09 9.26998 13.06C9.41998 12.81 9.52998 12.56 9.60998 12.29L10.05 10.74C10.08 10.62 10.1 10.53 10.24 10.51C10.35 10.5 10.43 10.59 10.47 10.72C10.68 11.59 10.91 12.43 11.21 13.28C11.21 13.3 11.24 13.3 11.25 13.28L11.49 12.11L11.77 10.51C11.81 10.27 11.86 10.05 11.94 9.82C12.1 9.37 11.98 9.21 12.2 9.16C12.25 9.15 12.38 9.18 12.4 9.23L12.67 9.9C12.83 10.3 12.99 10.68 13.12 11.08C13.12 10.88 13.12 10.69 13.11 10.5C13.1 10.31 13.27 10.3 13.41 10.31C13.75 10.33 15.39 10.35 15.47 10.74C15.53 10.99 15.09 11.55 14.83 11.76L14.18 12.31C14.44 12.53 14.72 12.69 14.99 12.89L15.86 13.55C15.84 13.18 15.82 12.83 15.83 12.45C15.84 12 15.8 11.57 15.77 11.11C15.77 11.04 15.85 10.95 15.92 10.93C16 10.91 16.08 10.96 16.16 11C16.86 11.35 17.58 11.58 18.33 11.8C18.39 11.82 18.47 11.86 18.5 11.9C18.54 11.94 18.54 12.08 18.52 12.13C18.22 12.74 18.27 12.66 17.78 13.17L17.39 13.57C17.66 13.58 17.89 13.61 18.12 13.57L18.72 13.5L18.65 12.76L18.58 12.13C18.56 11.91 18.52 11.7 18.47 11.48C18.47 11.44 18.47 11.34 18.47 11.3C18.49 11.26 18.58 11.21 18.63 11.2C18.88 11.18 19.12 11.15 19.37 11.16L20.68 11.2C20.73 11.2 20.81 11.22 20.84 11.25C20.87 11.28 20.88 11.38 20.86 11.41L20.73 11.63L19.72 11.59C19.46 11.59 19.22 11.59 18.95 11.6C18.92 11.6 18.9 11.63 18.9 11.65L18.98 12.41C18.98 12.41 19.01 12.46 19.03 12.45L19.85 12.38C19.99 12.37 20.19 12.35 20.3 12.43C20.4 12.51 20.27 12.71 20.16 12.72L19.08 12.8C19.08 12.8 19.03 12.83 19.03 12.85L19.09 13.63C19.09 13.63 19.12 13.68 19.14 13.68C19.92 13.63 20.69 13.62 21.49 13.64C21.53 13.64 21.56 13.61 21.56 13.57C21.56 13.41 21.53 13.25 21.5 13.08C21.38 12.56 21.46 12.21 21.33 11.67C21.3 11.55 21.28 11.43 21.39 11.36C21.5 11.29 21.63 11.33 21.71 11.42C22.45 12.22 22.37 12.64 23.01 13.13C23.08 13.18 23.17 13.13 23.18 13.05C23.18 12.85 23.18 12.66 23.16 12.45L22.94 10.09L22.85 9C22.83 8.81 23.02 8.76 23.18 8.75C23.54 8.73 24.91 8.64 25.15 8.75C25.27 8.8 25.15 9.08 25.02 9.16C24.64 9.14 24.27 9.12 23.89 9.15L23.25 9.2L23.42 11.19C23.47 11.78 23.57 12.35 23.56 12.94L23.54 13.63C23.54 13.77 23.36 13.93 23.24 13.83C23.13 13.74 23.03 13.63 22.91 13.55C22.63 13.36 22.39 13.14 22.21 12.85L21.79 12.17C21.77 12.79 21.95 13.12 21.97 13.73C21.97 13.78 21.95 13.83 21.92 13.86C21.9 13.88 21.88 13.9 21.86 13.92C21.83 13.95 21.78 13.97 21.73 13.97C20.86 13.94 20.01 13.94 19.14 14.01C18.85 14.03 18.6 13.9 18.14 13.97C17.58 14.06 17.07 14.13 16.48 14.15C16.33 14.15 16.17 14.2 16.02 14.23C15.9 14.26 15.84 14.07 15.77 14.02L14.87 13.34C14.62 13.15 14.29 13.07 14.01 12.93L13.61 12.73C13.56 12.7 13.49 12.73 13.49 12.8L13.32 14.44V15.18C13.32 15.4 13.26 15.61 13.28 15.82C13.29 15.98 13.26 16.14 13.09 16.16V16.47C13.07 16.54 12.99 16.57 12.94 16.52C12.9 16.48 12.87 16.43 12.83 16.38C12.81 16.35 12.8 16.31 12.8 16.27C12.85 15.57 12.82 14.89 12.83 14.18C12.84 13.54 12.86 12.94 12.79 12.3C12.76 12.08 12.8 11.87 12.86 11.65L12.75 11.34C12.75 11.34 12.71 11.3 12.69 11.31C12.46 11.36 12.23 11.36 11.99 11.35C11.96 11.35 11.94 11.37 11.93 11.39L11.68 12.77L11.51 13.74C11.48 13.92 11.4 14.1 11.33 14.24C11.17 14.21 11.08 14.1 11.02 13.96C10.7 13.13 10.47 12.3 10.22 11.43C9.91998 12.34 9.90998 12.62 9.42998 13.47C9.36998 13.58 9.35998 13.75 9.30998 13.87L9.18998 14.16C9.10998 14.13 8.97998 14.06 8.95998 13.98C8.88998 13.69 8.85998 13.42 8.85998 13.13C8.85998 12.14 8.68998 11.71 8.65998 10.79C8.63998 10.31 8.58998 9.86 8.48998 9.38C8.48998 9.35 8.44998 9.33 8.41998 9.33L8.09998 9.37L7.35998 9.48C7.14998 9.51 6.91998 9.52 6.74998 9.37C6.68998 9.32 6.67998 9.22 6.72998 9.16C6.85998 9 6.97998 9.18 7.28998 9.14L8.52998 8.95C8.57998 8.95 8.66998 8.95 8.70998 8.96C8.90998 9.05 8.98998 10.29 8.98998 10.56H9.01998ZM12.62 10.92C12.5 10.6 12.39 10.36 12.26 10.08C12.25 10.06 12.21 10.06 12.2 10.08C12.12 10.38 12.07 10.64 12.02 10.93C12.02 10.94 12.02 10.96 12.04 10.96C12.24 10.97 12.4 10.97 12.6 10.95C12.62 10.95 12.62 10.93 12.62 10.92ZM13.52 12.15L14.17 11.66C14.44 11.45 14.71 11.25 14.96 10.99C14.98 10.97 14.97 10.93 14.94 10.92C14.45 10.77 13.97 10.8 13.49 10.8C13.49 11.08 13.49 11.32 13.52 11.56C13.53 11.65 13.65 11.72 13.55 11.81C13.46 11.89 13.43 12.06 13.51 12.16L13.52 12.15ZM17.23 12.75C17.23 12.75 17.34 12.64 17.37 12.66L17.53 12.72L17.81 12.55C17.92 12.49 18 12.33 18.06 12.2C18.07 12.18 18.06 12.15 18.03 12.14C17.39 11.97 16.82 11.77 16.21 11.54C16.19 11.54 16.16 11.54 16.16 11.57V12.1C16.19 12.61 16.14 13.1 16.26 13.61C16.48 13.46 16.75 13.36 16.91 13.15L17.23 12.74V12.75Z" fill="black"/>
<path d="M7.45999 9.33H7.51999C7.51999 9.33 7.49999 9.33 7.48999 9.32C7.47999 9.32 7.46999 9.32 7.45999 9.33Z" fill="#CAC4B6"/>
<path d="M7.59998 9.31C7.59998 9.31 7.61998 9.31 7.62998 9.31C7.61998 9.31 7.60998 9.31 7.59998 9.31C7.59998 9.31 7.60998 9.31 7.59998 9.32V9.31Z" fill="#CAC4B6"/>
<path d="M7.85999 9.16C7.85999 9.16 8.02999 9.08 7.94999 9.09C7.83999 9.11 7.76999 9.14 7.66999 9.16C7.58999 9.19 7.51999 9.21 7.42999 9.23C7.40999 9.23 7.38999 9.23 7.35999 9.23C7.38999 9.23 7.41999 9.23 7.44999 9.23C7.48999 9.23 7.53999 9.19 7.60999 9.17C7.61999 9.17 7.61999 9.2 7.63999 9.19C7.68999 9.17 7.72999 9.15 7.76999 9.14C7.78999 9.13 7.82999 9.16 7.84999 9.14L7.85999 9.16Z" fill="#CAC4B6"/>
<path d="M9.09 12.14C9.09 12.14 9.15 12.16 9.18 12.18C9.16 12.03 9.14 11.87 9.14 11.72C9.13 11.86 9.11 12 9.09 12.14Z" fill="#CAC4B6"/>
<path d="M8.22998 9.11C8.22998 9.11 8.17998 9.09 8.14998 9.08C8.13998 9.08 8.12998 9.08 8.10998 9.09C8.01998 9.12 7.92998 9.16 7.82998 9.19C7.87998 9.18 7.93998 9.17 7.99998 9.19C7.96998 9.19 7.97998 9.18 7.99998 9.17H8.01998C8.01998 9.17 7.91998 9.22 7.86998 9.2C7.86998 9.2 7.84998 9.21 7.83998 9.22C7.81998 9.22 7.81998 9.21 7.81998 9.2C7.80998 9.2 7.79998 9.2 7.78998 9.2C7.81998 9.21 7.88998 9.22 7.88998 9.22C8.02998 9.19 8.15998 9.17 8.28998 9.16C8.28998 9.16 8.28998 9.16 8.29998 9.16C8.26998 9.15 8.23998 9.13 8.20998 9.12L8.22998 9.11Z" fill="#CAC4B6"/>
<path d="M20.98 13.87C20.92 13.87 20.87 13.87 20.81 13.88C20.89 13.88 20.97 13.89 21.04 13.91C21.14 13.93 21.24 13.94 21.34 13.95C21.34 13.95 21.35 13.95 21.36 13.95C21.43 13.95 21.5 13.95 21.56 13.91C21.57 13.91 21.56 13.85 21.58 13.84C21.46 13.8 21.06 13.87 20.98 13.87Z" fill="#CAC4B6"/>
<path d="M24.92 8.87L24.85 8.88C24.74 8.86 24.63 8.87 24.52 8.88C24.54 8.88 24.55 8.89 24.57 8.9C24.63 8.9 24.64 8.9 24.58 8.88C24.71 8.9 24.83 8.9 24.96 8.89C24.96 8.89 24.96 8.87 24.92 8.87Z" fill="#CAC4B6"/>
<path d="M23.08 9.88C23.08 9.88 23.09 9.95 23.1 9.99C23.1 10.03 23.12 10.06 23.12 10.09C23.12 10.11 23.13 10.13 23.12 10.16C23.12 10.18 23.12 10.21 23.12 10.23C23.12 10.27 23.12 10.32 23.12 10.36C23.12 10.37 23.12 10.39 23.12 10.4C23.12 10.42 23.13 10.42 23.13 10.4C23.13 10.42 23.13 10.44 23.13 10.47C23.13 10.47 23.13 10.47 23.13 10.48C23.15 10.25 23.16 10.01 23.16 9.78C23.16 9.78 23.16 9.77 23.16 9.76C23.16 9.73 23.15 9.71 23.14 9.68C23.12 9.59 23.1 9.48 23.1 9.38C23.1 9.28 23.1 9.16 23.08 9.01C23.1 9.19 23.06 9.43 23.06 9.43C23.06 9.43 23.08 9.38 23.08 9.44C23.08 9.46 23.08 9.47 23.07 9.49C23.06 9.38 23.08 9.29 23.09 9.16C23.09 9.16 23.07 9.09 23.06 9.05C23.06 9 23.07 9.01 23.09 9.01C23.09 8.97 23.09 8.95 23.09 8.92C23.09 8.92 23.07 8.95 23.06 8.97C23.06 9 23.06 9.03 23.06 9.07C23.06 9.11 23.06 9.14 23.06 9.16C23.06 9.18 23.06 9.19 23.06 9.19C23.06 9.39 23.04 9.51 23.06 9.66C23.06 9.73 23.08 9.81 23.09 9.88H23.08Z" fill="#CAC4B6"/>
<path d="M10.12 11.43C10.12 11.43 10.12 11.47 10.11 11.49C10.14 11.41 10.16 11.33 10.19 11.26C10.18 11.3 10.16 11.33 10.14 11.37C10.13 11.4 10.12 11.42 10.12 11.44V11.43Z" fill="#CAC4B6"/>
<path d="M10.26 11.01V11.05C10.26 11.05 10.26 11.02 10.26 11.01L10.27 11.03V11.01H10.26Z" fill="#CAC4B6"/>
<path d="M10.39 11.35C10.37 11.27 10.35 11.2 10.32 11.14C10.34 11.21 10.36 11.27 10.39 11.35Z" fill="#CAC4B6"/>
<path d="M10.27 11.03C10.27 11.03 10.3 11.1 10.32 11.14C10.3 11.09 10.29 11.04 10.28 10.99C10.29 11.03 10.29 11.06 10.28 11.03H10.27Z" fill="#CAC4B6"/>
<path d="M10.26 10.95V10.94C10.26 10.94 10.26 10.96 10.25 10.96C10.25 10.96 10.25 10.95 10.26 10.94C10.26 10.96 10.27 10.98 10.28 11C10.28 11 10.28 10.98 10.28 10.97V10.95H10.26Z" fill="#CAC4B6"/>
<path d="M9.54997 12.93C9.48997 13.06 9.42997 13.18 9.37997 13.31C9.37997 13.33 9.37997 13.35 9.37997 13.37C9.45997 13.19 9.53997 12.99 9.59997 12.8C9.57997 12.83 9.55997 12.87 9.53997 12.9C9.48997 13.04 9.48997 13.06 9.53997 12.94L9.54997 12.93Z" fill="#CAC4B6"/>
<path d="M11.68 11.13C11.67 11.21 11.65 11.3 11.64 11.38C11.63 11.46 11.61 11.55 11.6 11.63C11.6 11.65 11.6 11.66 11.6 11.68C11.6 11.7 11.6 11.73 11.6 11.75C11.6 11.71 11.61 11.66 11.62 11.62C11.65 11.46 11.67 11.29 11.7 11.12C11.7 11.12 11.7 11.13 11.69 11.13H11.68Z" fill="#CAC4B6"/>
<path d="M10.79 12.59C10.74 12.42 10.69 12.26 10.65 12.1C10.7 12.3 10.75 12.5 10.8 12.7C10.8 12.66 10.8 12.63 10.8 12.59H10.79Z" fill="#CAC4B6"/>
<path d="M11.71 11.41C11.77 11.12 11.8 10.84 11.92 10.56C11.94 10.44 11.96 10.33 12.01 10.22C12.01 10.2 12.03 10.19 12.04 10.18C12.06 10.1 12.08 10.03 12.11 9.95C12.09 9.95 12.08 9.95 12.07 9.95C12.03 9.97 12 9.99 11.99 10.01C11.98 10.04 11.97 10.06 11.96 10.09C11.96 10.11 11.97 10.13 11.96 10.16C11.95 10.26 11.92 10.35 11.89 10.44C11.85 10.63 11.8 10.82 11.73 11C11.73 11 11.73 11.01 11.73 11.02C11.73 11.02 11.73 11.03 11.73 11.04C11.73 11.06 11.73 11.08 11.73 11.09C11.73 11.13 11.72 11.17 11.71 11.22C11.71 11.24 11.7 11.27 11.69 11.29C11.69 11.31 11.69 11.32 11.68 11.34C11.66 11.41 11.64 11.48 11.64 11.53C11.61 11.7 11.59 11.87 11.56 12.05C11.56 12.06 11.56 12.07 11.56 12.09C11.61 11.86 11.66 11.63 11.71 11.39V11.41Z" fill="#CAC4B6"/>
<path d="M10.8 12.78C10.76 12.64 10.72 12.5 10.7 12.36C10.7 12.36 10.67 12.26 10.65 12.2C10.63 12.12 10.65 12.12 10.65 12.1C10.64 12.05 10.62 11.99 10.61 11.94C10.62 12.06 10.7 12.43 10.7 12.43C10.74 12.57 10.77 12.7 10.81 12.83C10.81 12.81 10.81 12.8 10.81 12.78H10.8Z" fill="#CAC4B6"/>
<path d="M21.935 6.03L21.675 6.56H21.595L21.835 6.07H21.505V6.01H21.925V6.03H21.935Z" fill="#444549"/>
<path d="M22.045 6.53V6.46C22.045 6.46 22.135 6.5 22.195 6.5C22.245 6.5 22.275 6.5 22.305 6.47C22.335 6.45 22.345 6.43 22.345 6.39C22.345 6.32 22.285 6.28 22.165 6.28H22.115V6.23H22.165C22.275 6.23 22.325 6.2 22.325 6.13C22.325 6.07 22.285 6.04 22.205 6.04C22.155 6.04 22.115 6.05 22.075 6.08V6.02C22.075 6.02 22.165 5.99 22.225 5.99C22.285 5.99 22.325 6 22.355 6.03C22.385 6.06 22.405 6.09 22.405 6.12C22.405 6.19 22.365 6.24 22.275 6.26C22.275 6.26 22.355 6.28 22.385 6.3C22.415 6.32 22.425 6.35 22.425 6.39C22.425 6.44 22.405 6.48 22.365 6.51C22.325 6.54 22.265 6.56 22.195 6.56C22.135 6.56 22.085 6.56 22.045 6.53Z" fill="#444549"/>
<path d="M22.555 6.54V6.47C22.555 6.47 22.645 6.51 22.695 6.51C22.745 6.51 22.775 6.5 22.805 6.48C22.835 6.46 22.845 6.43 22.845 6.39C22.845 6.35 22.835 6.33 22.805 6.31C22.775 6.29 22.735 6.28 22.685 6.28C22.665 6.28 22.635 6.28 22.585 6.28V6.01H22.905V6.07H22.655V6.23C22.655 6.23 22.695 6.23 22.715 6.23C22.785 6.23 22.835 6.24 22.875 6.27C22.915 6.3 22.935 6.34 22.935 6.39C22.935 6.44 22.915 6.49 22.875 6.52C22.835 6.55 22.775 6.57 22.705 6.57C22.645 6.57 22.595 6.57 22.565 6.55L22.555 6.54Z" fill="#444549"/>
<path d="M23.065 6.54V6.47C23.065 6.47 23.155 6.51 23.205 6.51C23.255 6.51 23.285 6.5 23.315 6.48C23.345 6.46 23.355 6.43 23.355 6.39C23.355 6.35 23.345 6.33 23.315 6.31C23.285 6.29 23.245 6.28 23.195 6.28C23.175 6.28 23.145 6.28 23.095 6.28V6.01H23.415V6.07H23.165V6.23C23.165 6.23 23.205 6.23 23.225 6.23C23.295 6.23 23.345 6.24 23.385 6.27C23.425 6.3 23.445 6.34 23.445 6.39C23.445 6.44 23.425 6.49 23.385 6.52C23.345 6.55 23.285 6.57 23.215 6.57C23.155 6.57 23.105 6.57 23.075 6.55L23.065 6.54Z" fill="#444549"/>
<path d="M23.915 6.01V6.07C23.915 6.07 23.845 6.05 23.805 6.05C23.745 6.05 23.705 6.07 23.665 6.11C23.625 6.15 23.615 6.21 23.615 6.28C23.645 6.23 23.695 6.2 23.765 6.2C23.825 6.2 23.865 6.22 23.905 6.25C23.935 6.28 23.955 6.32 23.955 6.37C23.955 6.42 23.935 6.47 23.895 6.5C23.855 6.53 23.805 6.55 23.745 6.55C23.675 6.55 23.625 6.53 23.595 6.48C23.565 6.43 23.535 6.38 23.535 6.3C23.535 6.2 23.555 6.13 23.605 6.07C23.655 6.01 23.715 5.98 23.795 5.98C23.845 5.98 23.875 5.98 23.905 6L23.915 6.01ZM23.755 6.26C23.755 6.26 23.685 6.27 23.665 6.29C23.645 6.31 23.625 6.34 23.625 6.37C23.625 6.41 23.635 6.44 23.665 6.47C23.685 6.5 23.725 6.51 23.755 6.51C23.785 6.51 23.825 6.5 23.845 6.48C23.865 6.46 23.875 6.43 23.875 6.39C23.875 6.35 23.865 6.32 23.845 6.3C23.825 6.28 23.795 6.27 23.755 6.27V6.26Z" fill="#444549"/>
<path d="M24.235 6.56C24.175 6.56 24.115 6.54 24.085 6.49C24.045 6.44 24.035 6.38 24.035 6.29C24.035 6.19 24.055 6.12 24.095 6.07C24.135 6.02 24.185 6 24.255 6C24.395 6 24.455 6.09 24.455 6.28C24.455 6.37 24.435 6.44 24.395 6.49C24.355 6.54 24.305 6.56 24.235 6.56ZM24.245 6.05C24.155 6.05 24.105 6.13 24.105 6.29C24.105 6.44 24.155 6.51 24.245 6.51C24.335 6.51 24.385 6.43 24.385 6.28C24.385 6.13 24.345 6.05 24.255 6.05H24.245Z" fill="#444549"/>
<path d="M24.675 6.27C24.595 6.24 24.555 6.19 24.555 6.14C24.555 6.1 24.575 6.07 24.605 6.04C24.645 6.01 24.685 6 24.745 6C24.795 6 24.835 6.01 24.875 6.04C24.905 6.06 24.925 6.09 24.925 6.13C24.925 6.19 24.885 6.24 24.805 6.27C24.905 6.3 24.945 6.35 24.945 6.42C24.945 6.47 24.925 6.5 24.885 6.53C24.845 6.56 24.795 6.57 24.725 6.57C24.665 6.57 24.625 6.56 24.585 6.53C24.545 6.5 24.535 6.47 24.535 6.43C24.535 6.36 24.585 6.31 24.675 6.28V6.27ZM24.735 6.3C24.655 6.33 24.615 6.37 24.615 6.42C24.615 6.45 24.625 6.47 24.655 6.49C24.685 6.51 24.715 6.52 24.755 6.52C24.795 6.52 24.825 6.52 24.845 6.49C24.865 6.46 24.885 6.45 24.885 6.43C24.885 6.38 24.845 6.33 24.755 6.31L24.735 6.3ZM24.855 6.13C24.855 6.13 24.855 6.09 24.825 6.07C24.805 6.06 24.785 6.05 24.745 6.05C24.715 6.05 24.685 6.05 24.665 6.07C24.645 6.09 24.635 6.1 24.635 6.13C24.635 6.18 24.675 6.21 24.745 6.24C24.815 6.22 24.855 6.18 24.855 6.13Z" fill="#444549"/>
</g>
<defs>
<linearGradient id="paint0_linear_200_234" x1="25.06" y1="3.11" x2="6.93999" y2="28.89" gradientUnits="userSpaceOnUse">
<stop stop-color="#FDFAF1"/>
<stop offset="1" stop-color="#A29885"/>
</linearGradient>
<linearGradient id="paint1_linear_200_234" x1="25.01" y1="3.18" x2="7.01997" y2="28.77" gradientUnits="userSpaceOnUse">
<stop stop-color="#FFFBEC"/>
<stop offset="1" stop-color="#E1D1B7"/>
</linearGradient>
<linearGradient id="paint2_linear_200_234" x1="20.66" y1="28.15" x2="23.03" y2="28.15" gradientUnits="userSpaceOnUse">
<stop stop-color="#FFFBEC"/>
<stop offset="1" stop-color="#EFE6D2"/>
</linearGradient>
<linearGradient id="paint3_linear_200_234" x1="9.28" y1="2.57999" x2="10.56" y2="2.57999" gradientUnits="userSpaceOnUse">
<stop stop-color="#FFFBEC"/>
<stop offset="1" stop-color="#EFE6D2"/>
</linearGradient>
<linearGradient id="paint4_linear_200_234" x1="14.35" y1="2.57999" x2="15.43" y2="2.57999" gradientUnits="userSpaceOnUse">
<stop stop-color="#FFFBEC"/>
<stop offset="1" stop-color="#EFE6D2"/>
</linearGradient>
<linearGradient id="paint5_linear_200_234" x1="13.97" y1="2.57999" x2="15.06" y2="2.57999" gradientUnits="userSpaceOnUse">
<stop stop-color="#FFFBEC"/>
<stop offset="1" stop-color="#EFE6D2"/>
</linearGradient>
<linearGradient id="paint6_linear_200_234" x1="12.67" y1="2.57999" x2="13.75" y2="2.57999" gradientUnits="userSpaceOnUse">
<stop stop-color="#FFFBEC"/>
<stop offset="1" stop-color="#EFE6D2"/>
</linearGradient>
<linearGradient id="paint7_linear_200_234" x1="23.87" y1="28.14" x2="25.53" y2="28.14" gradientUnits="userSpaceOnUse">
<stop stop-color="#FFFBEC"/>
<stop offset="1" stop-color="#EFE6D2"/>
</linearGradient>
<linearGradient id="paint8_linear_200_234" x1="6.89999" y1="28.11" x2="8.82999" y2="28.11" gradientUnits="userSpaceOnUse">
<stop stop-color="#FFFBEC"/>
<stop offset="1" stop-color="#EFE6D2"/>
</linearGradient>
<linearGradient id="paint9_linear_200_234" x1="18.03" y1="2.57999" x2="20.41" y2="2.57999" gradientUnits="userSpaceOnUse">
<stop stop-color="#FFFBEC"/>
<stop offset="1" stop-color="#EFE6D2"/>
</linearGradient>
<linearGradient id="paint10_linear_200_234" x1="15.18" y1="2.57999" x2="18.58" y2="2.57999" gradientUnits="userSpaceOnUse">
<stop stop-color="#FFFBEC"/>
<stop offset="1" stop-color="#EFE6D2"/>
</linearGradient>
<linearGradient id="paint11_linear_200_234" x1="14.99" y1="6.46" x2="16.58" y2="3.84" gradientUnits="userSpaceOnUse">
<stop stop-color="#FDFAF1"/>
<stop offset="1" stop-color="#A29885"/>
</linearGradient>
<radialGradient id="paint12_radial_200_234" cx="0" cy="0" r="1" gradientUnits="userSpaceOnUse" gradientTransform="translate(17.05 23.88) scale(15.72)">
<stop stop-color="#C9C6B9" stop-opacity="0.2"/>
<stop offset="0.98" stop-color="#D3C4AB" stop-opacity="0"/>
</radialGradient>
<clipPath id="clip0_200_234">
<rect width="19.4" height="26.84" fill="white" transform="translate(6.29999 2.58)"/>
</clipPath>
</defs>
</svg>
