<svg width="32" height="32" viewBox="0 0 32 32" fill="none" xmlns="http://www.w3.org/2000/svg">
<g clip-path="url(#clip0_200_232)">
<path d="M23.71 2.58H8.28999C7.18999 2.58 6.29999 3.51 6.29999 4.67V27.33C6.29999 28.48 7.18999 29.42 8.28999 29.42H23.71C24.81 29.42 25.7 28.49 25.7 27.33V4.67C25.7 3.52 24.81 2.58 23.71 2.58ZM15.78 6.38C15.11 6.38 14.57 5.81 14.57 5.11C14.57 4.41 15.11 3.84 15.78 3.84C16.45 3.84 16.99 4.41 16.99 5.11C16.99 5.81 16.45 6.38 15.78 6.38Z" fill="url(#paint0_linear_200_232)"/>
<path d="M23.67 2.66H8.39998C7.30998 2.66 6.41998 3.59 6.41998 4.73V27.24C6.41998 28.38 7.29998 29.31 8.38998 29.31H23.66C24.75 29.31 25.63 28.38 25.63 27.24V4.73C25.63 3.59 24.75 2.66 23.66 2.66H23.67ZM15.81 6.44C15.15 6.44 14.61 5.88 14.61 5.18C14.61 4.48 15.15 3.92 15.81 3.92C16.47 3.92 17.01 4.48 17.01 5.18C17.01 5.88 16.47 6.44 15.81 6.44Z" fill="url(#paint1_linear_200_232)"/>
<path d="M6.37 27.36C6.37 28.45 7.22 29.33 8.28 29.33H23.69C24.74 29.33 25.6 28.45 25.6 27.36V17.6H6.37V27.36Z" fill="#DBBF44"/>
<path d="M23.65 2.71H8.38C7.29 2.71 6.41 3.59 6.41 4.68V5.58H14.64C14.57 5.41 14.54 5.25 14.54 5.07C14.54 4.38 15.1 3.82 15.79 3.82C16.48 3.82 17.04 4.38 17.04 5.07C17.04 5.25 17 5.41 16.94 5.56H25.63V4.68C25.63 3.59 24.75 2.71 23.66 2.71H23.65Z" fill="#DBBF44"/>
<path d="M20.54 29.12H22.03L22.92 27.26H21.44L20.54 29.12Z" fill="#ECE2CC"/>
<path d="M9.17001 29.12H9.56001L10.45 27.26H10.06L9.17001 29.12Z" fill="#ECE2CC"/>
<path d="M14.23 29.12H14.42L15.32 27.26H15.13L14.23 29.12Z" fill="#ECE2CC"/>
<path d="M13.86 29.12H14.05L14.94 27.26H14.75L13.86 29.12Z" fill="#ECE2CC"/>
<path d="M12.55 29.12H12.75L13.64 27.26H13.45L12.55 29.12Z" fill="#ECE2CC"/>
<path d="M25.42 27.26H24.65L23.76 29.1C24.66 28.98 25.36 28.21 25.42 27.26Z" fill="#ECE2CC"/>
<path d="M7.86 29.04L8.72 27.26H7.23L6.78 28.19C7.02 28.59 7.4 28.9 7.85 29.04H7.86Z" fill="#ECE2CC"/>
<path d="M17.92 29.12H19.4L20.3 27.26H18.81L17.92 29.12Z" fill="#ECE2CC"/>
<path d="M15.07 29.12H17.57L18.47 27.26H15.96L15.07 29.12Z" fill="#ECE2CC"/>
<path d="M24.53 15.47H24.36V17.35H24.53V15.47Z" fill="#444549"/>
<path d="M24.12 15.47H23.95V17.35H24.12V15.47Z" fill="#444549"/>
<path d="M23.67 15.47H23.5V17.35H23.67V15.47Z" fill="#444549"/>
<path d="M13.01 4.01C13.01 4.01 12.99 3.99 12.99 3.98C12.99 3.98 12.97 3.96 12.96 3.96C12.96 3.96 12.94 3.95 12.93 3.94C12.93 3.94 12.98 3.92 13 3.91C13.02 3.9 13.04 3.88 13.05 3.87C13.06 3.85 13.07 3.84 13.08 3.81C13.08 3.79 13.09 3.77 13.09 3.74C13.09 3.71 13.09 3.68 13.07 3.66C13.06 3.64 13.04 3.62 13.02 3.6C13 3.58 12.98 3.57 12.95 3.56C12.92 3.56 12.89 3.55 12.86 3.55H12.65V4.27H12.73V3.97H12.8C12.8 3.97 12.83 3.97 12.84 3.97C12.85 3.97 12.86 3.97 12.87 3.99C12.88 3.99 12.89 4.01 12.9 4.02C12.91 4.03 12.92 4.05 12.93 4.07L13.05 4.27H13.15L13.02 4.05C13.02 4.05 13 4.02 12.99 4.01H13.01ZM12.92 3.87C12.92 3.87 12.88 3.87 12.86 3.87H12.75V3.61H12.86C12.86 3.61 12.94 3.62 12.97 3.64C12.99 3.66 13.01 3.69 13.01 3.73C13.01 3.75 13.01 3.77 13 3.79C13 3.81 12.98 3.82 12.97 3.83C12.96 3.84 12.94 3.85 12.92 3.86V3.87Z" fill="#515153"/>
<path d="M11.34 3.94H11.6V3.86H11.34V3.62H11.62V3.55H11.25V4.26H11.63V4.19H11.34V3.94Z" fill="#515153"/>
<path d="M9.74997 3.62H9.95997V4.26H10.04V3.62H10.25V3.55H9.74997V3.62Z" fill="#515153"/>
<path d="M8.66998 4.05C8.66998 4.05 8.66998 4.13 8.66998 4.16C8.66998 4.16 8.65998 4.14 8.63998 4.11L8.27998 3.55H8.16998V4.27H8.24998V3.75C8.24998 3.7 8.24998 3.67 8.24998 3.65C8.24998 3.65 8.25998 3.68 8.26998 3.69L8.63998 4.26H8.73998V3.54H8.65998V4.04L8.66998 4.05Z" fill="#515153"/>
<path d="M15.98 3.83L16.03 3.68C16.03 3.68 16.03 3.65 16.04 3.63C16.04 3.63 16.04 3.67 16.05 3.68L16.12 3.87C16.12 3.87 16.19 3.9 16.23 3.91L16.09 3.54H16L15.9 3.81C15.9 3.81 15.95 3.81 15.98 3.83Z" fill="#515153"/>
<path d="M7.08998 3.55H7.00998V4.27H7.08998V3.55Z" fill="#515153"/>
<path d="M20.18 3.53C20.07 3.53 19.99 3.56 19.93 3.63C19.87 3.7 19.84 3.79 19.84 3.91C19.84 4.02 19.87 4.1 19.93 4.17C19.99 4.24 20.07 4.27 20.17 4.27C20.27 4.27 20.36 4.24 20.42 4.17C20.48 4.1 20.51 4.01 20.51 3.89C20.51 3.78 20.48 3.7 20.42 3.63C20.36 3.56 20.28 3.53 20.18 3.53ZM20.35 4.12C20.3 4.17 20.24 4.2 20.16 4.2C20.09 4.2 20.03 4.17 19.98 4.12C19.93 4.07 19.91 4 19.91 3.91C19.91 3.82 19.93 3.75 19.98 3.7C20.03 3.65 20.09 3.62 20.16 3.62C20.23 3.62 20.3 3.65 20.34 3.7C20.38 3.75 20.41 3.82 20.41 3.92C20.41 4.02 20.39 4.08 20.34 4.14L20.35 4.12Z" fill="#515153"/>
<path d="M23.38 3.55L23.11 4.27H23.2L23.27 4.07H23.57L23.65 4.27H23.74L23.46 3.55H23.37H23.38ZM23.3 3.99L23.41 3.68C23.41 3.68 23.41 3.65 23.42 3.63C23.42 3.63 23.42 3.67 23.43 3.68L23.54 3.99H23.29H23.3Z" fill="#515153"/>
<path d="M24.83 4.19V3.55H24.74V4.26H25.11V4.19H24.83Z" fill="#515153"/>
<path d="M22.03 4.05C22.03 4.05 22.03 4.13 22.03 4.16C22.03 4.16 22.02 4.14 22 4.11L21.64 3.55H21.53V4.27H21.61V3.75C21.61 3.7 21.61 3.67 21.61 3.65C21.61 3.65 21.62 3.68 21.63 3.69L22 4.26H22.1V3.54H22.02V4.04L22.03 4.05Z" fill="#515153"/>
<path d="M18.8 3.55H18.72V4.27H18.8V3.55Z" fill="#515153"/>
<path d="M14.27 3.69L14.64 4.26H14.74V3.54H14.66V4.04C14.66 4.04 14.66 4.12 14.66 4.15C14.66 4.15 14.65 4.13 14.63 4.1L14.27 3.54H14.16V4.26H14.24V3.74C14.24 3.69 14.24 3.66 14.24 3.64C14.24 3.64 14.25 3.67 14.26 3.68L14.27 3.69Z" fill="#515153"/>
<path d="M17.22 3.62H17.42V4.26H17.51V3.62H17.71V3.55H17.22V3.62Z" fill="#515153"/>
<path d="M15.78 3.89C15.09 3.89 14.53 4.46 14.53 5.15C14.53 5.84 15.09 6.41 15.78 6.41C16.47 6.41 17.03 5.84 17.03 5.15C17.03 4.46 16.47 3.89 15.78 3.89ZM15.78 6.36C15.12 6.36 14.59 5.82 14.59 5.15C14.59 4.48 15.12 3.94 15.78 3.94C16.44 3.94 16.97 4.48 16.97 5.15C16.97 5.82 16.44 6.36 15.78 6.36Z" fill="url(#paint2_linear_200_232)"/>
<path opacity="0.31" d="M6.53998 21.46V15.6C7.14998 15.87 7.86998 16.2 8.68998 16.6C9.99998 17.23 10.58 17.67 11.93 19.77C13.66 22.47 18.91 22.87 19.62 22.17C20.06 21.75 20.36 20.28 21.54 20.7C23.81 21.49 24.83 19.57 25.34 19.85V23.95C25.34 25.26 24.48 26.28 23.41 26.21L8.46998 23.96C7.39998 23.89 6.53998 22.77 6.53998 21.46Z" fill="url(#paint3_linear_200_232)"/>
<path d="M10.74 24.43L10.23 22.38L10.25 26.48H9.09998V19.63H10.41L11.17 22.36L11.92 19.63H13.19V26.48L12.09 26.51L12.05 22.49L11.56 24.43H10.73H10.74Z" fill="#ECE2CC"/>
<path d="M17.19 26.48L16.95 24.85H15.65L15.37 26.48H14.13L15.43 19.63H17.19L18.5 26.48H17.2H17.19ZM16.77 23.67L16.34 20.79L15.85 23.67H16.77Z" fill="#ECE2CC"/>
<path d="M19.36 26.48V19.63H21.3C21.89 19.63 22.35 19.78 22.68 20.09C23.01 20.4 23.18 20.86 23.18 21.49V22.57C23.18 23.19 23.02 23.64 22.7 23.92C22.38 24.21 21.92 24.35 21.31 24.35H20.71V26.48H19.37H19.36ZM20.7 23.18H21.21C21.4 23.18 21.54 23.13 21.63 23.02C21.72 22.91 21.77 22.71 21.77 22.41V21.61C21.77 21.3 21.72 21.09 21.63 20.98C21.54 20.87 21.4 20.81 21.21 20.81H20.7V23.18Z" fill="#ECE2CC"/>
<path d="M9.41 19.33C9.29 19.33 9.21 19.3 9.15 19.24C9.09 19.18 9.06 19.1 9.06 18.98V18.63C9.06 18.51 9.09 18.43 9.15 18.37C9.21 18.31 9.29 18.28 9.41 18.28C9.53 18.28 9.6 18.31 9.66 18.37C9.72 18.43 9.74 18.52 9.75 18.65H9.51C9.51 18.58 9.5 18.53 9.49 18.5C9.48 18.47 9.45 18.46 9.41 18.46C9.37 18.46 9.34 18.47 9.33 18.5C9.31 18.53 9.31 18.58 9.31 18.65V18.95C9.31 19.02 9.31 19.07 9.33 19.1C9.34 19.13 9.37 19.14 9.41 19.14C9.45 19.14 9.47 19.13 9.48 19.1C9.49 19.08 9.5 19.02 9.51 18.94H9.75C9.75 19.08 9.72 19.17 9.66 19.23C9.61 19.29 9.52 19.32 9.41 19.32V19.33Z" fill="#ECE2CC"/>
<path d="M11.01 19.33C10.91 19.33 10.82 19.3 10.77 19.24C10.71 19.18 10.69 19.1 10.69 19V18.63C10.69 18.52 10.72 18.44 10.77 18.38C10.83 18.32 10.91 18.29 11.01 18.29C11.11 18.29 11.2 18.32 11.25 18.38C11.31 18.44 11.33 18.52 11.33 18.63V19C11.33 19.1 11.3 19.19 11.25 19.24C11.19 19.3 11.11 19.33 11.01 19.33ZM11.01 19.15C11.01 19.15 11.07 19.14 11.08 19.11C11.09 19.08 11.1 19.04 11.1 18.97V18.64C11.1 18.57 11.1 18.52 11.08 18.49C11.07 18.46 11.04 18.45 11.01 18.45C10.98 18.45 10.95 18.46 10.94 18.49C10.93 18.52 10.92 18.56 10.92 18.64V18.97C10.92 19.04 10.92 19.09 10.94 19.11C10.96 19.13 10.98 19.15 11.01 19.15Z" fill="#ECE2CC"/>
<path d="M12.58 19.01L12.49 18.66L12.52 19.32H12.31V18.3H12.52L12.65 18.77L12.78 18.3H12.98V19.32H12.77L12.8 18.68L12.72 19.02H12.58V19.01Z" fill="#ECE2CC"/>
<path d="M14.21 19.01L14.12 18.66L14.15 19.32H13.94V18.3H14.15L14.28 18.77L14.41 18.3H14.61V19.32H14.4L14.43 18.68L14.35 19.02H14.21V19.01Z" fill="#ECE2CC"/>
<path d="M15.9 19.33C15.79 19.33 15.7 19.3 15.65 19.24C15.6 19.18 15.57 19.09 15.57 18.96V18.3H15.81V18.96C15.81 19.03 15.81 19.08 15.83 19.1C15.84 19.13 15.87 19.14 15.9 19.14C15.93 19.14 15.96 19.13 15.97 19.1C15.98 19.07 15.99 19.03 15.99 18.96V18.3H16.23V18.96C16.23 19.08 16.2 19.18 16.15 19.24C16.1 19.3 16.01 19.33 15.9 19.33Z" fill="#ECE2CC"/>
<path d="M17.59 19.32L17.4 18.63V19.32H17.2V18.3H17.45L17.66 19.02V18.3H17.86V19.32H17.59Z" fill="#ECE2CC"/>
<path d="M18.83 19.32V19.14H19.04V18.47H18.83V18.29H19.49V18.47H19.28V19.14H19.49V19.32H18.83Z" fill="#ECE2CC"/>
<path d="M20.67 19.32V18.48H20.44V18.3H21.14V18.48H20.91V19.32H20.67Z" fill="#ECE2CC"/>
<path d="M22.54 19.32H22.3V18.94L22.05 18.31H22.28L22.41 18.71L22.55 18.31H22.78L22.53 18.94V19.32H22.54Z" fill="#ECE2CC"/>
<path d="M15.73 10.89C15.73 10.89 15.75 10.91 15.75 10.92C15.8 11.44 15.64 12.37 15.12 12.64C14.93 12.74 14.72 12.79 14.49 12.86C14.47 12.86 14.46 12.88 14.45 12.9C14.37 13.51 14.35 14.1 14.32 14.7L14.29 15.4C14.29 15.4 14.28 15.44 14.26 15.45L13.92 15.56C13.92 15.56 13.86 15.56 13.86 15.52C13.66 14.62 14.02 13.14 14.12 12.13C14.12 12.09 14.08 12.06 14.04 12.09C13.61 12.41 12.87 12.84 12.57 12.31C12.56 12.29 12.54 12.28 12.51 12.29C12.31 12.34 12.08 12.4 11.91 12.48C11.63 12.68 11.32 12.89 10.98 12.68C10.71 12.52 10.59 12.19 10.47 11.87C10.46 11.83 10.4 11.83 10.38 11.86C9.91998 12.52 9.96998 12.54 9.19998 12.84C9.01998 12.91 8.85998 12.76 8.83998 12.58C8.80998 12.27 8.87998 11.98 9.01998 11.68C9.46998 10.69 10.08 9.81 10.79 9C10.84 8.95 11 8.89 11.07 8.9C11.15 8.9 11.28 9.02 11.27 9.09L11.23 9.46L10.98 11.11C10.93 11.44 10.95 11.8 11.14 12.06C11.28 12.26 11.47 12.29 11.66 12.19L12.23 11.87C12.33 11.81 12.48 11.61 12.5 11.49C12.59 10.88 12.71 10.33 12.95 9.77C13.04 9.55 13.21 9.41 13.44 9.34C13.46 9.34 13.47 9.34 13.49 9.34L13.63 9.45C13.73 9.53 13.78 9.65 13.76 9.78C13.66 10.3 13.48 10.76 13.19 11.22C13.02 11.49 12.88 11.84 13.07 12.15C13.07 12.15 13.07 12.16 13.08 12.16C13.39 12.41 14.2 11.21 14.35 10.96C14.39 10.89 14.5 10.79 14.57 10.76C14.63 10.73 14.76 10.8 14.85 10.83C14.86 10.83 14.87 10.83 14.89 10.83L15.17 10.72C15.31 10.66 15.47 10.69 15.59 10.79L15.74 10.91L15.73 10.89ZM10.42 10.2C10.03 10.58 9.28998 11.85 9.26998 12.38C9.26998 12.42 9.30998 12.44 9.33998 12.43C9.78998 12.21 10.44 10.81 10.5 10.24C10.5 10.19 10.45 10.17 10.42 10.2ZM15.08 11.29C14.82 11.61 14.67 11.98 14.56 12.38C14.56 12.41 14.56 12.43 14.6 12.44C14.99 12.56 15.19 11.7 15.17 11.32C15.17 11.27 15.11 11.26 15.08 11.29Z" fill="black"/>
<path d="M17.58 12.1C17.58 12.1 17.52 12.04 17.49 12.07C17.15 12.43 16.56 12.69 16.26 12.48C15.86 12.21 16.09 11.47 16.23 11.04C16.25 10.97 16.3 10.91 16.37 10.87L16.5 10.79C16.5 10.79 16.54 10.79 16.56 10.79L16.67 10.9C16.73 10.96 16.75 11.05 16.73 11.13C16.62 11.46 16.37 12.16 16.65 12.17C16.99 12.18 17.47 11.33 17.63 11.03C17.7 10.9 17.89 10.78 18 10.83C18.16 10.9 18.2 11.12 18.18 11.28L18.09 11.81C18.09 11.86 18.15 11.89 18.18 11.85C18.43 11.51 18.75 10.89 19.11 11C19.52 11.12 19.17 11.7 19.31 11.93C19.41 12.11 19.64 12.17 19.79 12.11C19.98 12.03 20.09 11.87 20.1 11.66C20.11 11.21 20.44 10.61 20.94 10.63C20.96 10.63 20.97 10.63 20.98 10.65L21.19 10.98C21.19 10.98 21.2 11.02 21.19 11.03L20.77 11.77C20.77 11.77 20.77 11.79 20.77 11.8C20.77 11.88 20.95 11.99 21.04 12C22.32 12.2 23.07 11.79 24.22 11.66C24.25 11.66 24.32 11.76 24.3 11.79C24.28 11.82 24.22 11.91 24.19 11.92C23.14 12.33 21.38 12.75 20.29 12.29C20.28 12.29 20.27 12.29 20.25 12.29C20.03 12.38 19.77 12.5 19.55 12.54C19.15 12.6 18.83 12.39 18.75 12.02C18.75 11.98 18.68 11.97 18.66 12C18.55 12.17 18.46 12.34 18.33 12.46C18.24 12.55 17.94 12.59 17.81 12.56C17.63 12.52 17.59 12.3 17.58 12.09V12.1Z" fill="black"/>
<path d="M16.94 9.7C16.82 9.76 16.55 9.55 16.54 9.43C16.53 9.28 16.65 9.13 16.75 9.09C16.85 9.05 17.09 9.04 17.16 9.12C17.19 9.16 17.22 9.2 17.24 9.24C17.32 9.36 17.28 9.52 17.15 9.59L16.94 9.7Z" fill="black"/>
<path d="M21.935 6.03L21.675 6.56H21.595L21.835 6.07H21.505V6.01H21.925V6.03H21.935Z" fill="#444549"/>
<path d="M22.045 6.53V6.46C22.045 6.46 22.135 6.5 22.195 6.5C22.245 6.5 22.275 6.5 22.305 6.47C22.335 6.45 22.345 6.43 22.345 6.39C22.345 6.32 22.285 6.28 22.165 6.28H22.115V6.23H22.165C22.275 6.23 22.325 6.2 22.325 6.13C22.325 6.07 22.285 6.04 22.205 6.04C22.155 6.04 22.115 6.05 22.075 6.08V6.02C22.075 6.02 22.165 5.99 22.225 5.99C22.285 5.99 22.325 6 22.355 6.03C22.385 6.06 22.405 6.09 22.405 6.12C22.405 6.19 22.365 6.24 22.275 6.26C22.275 6.26 22.355 6.28 22.385 6.3C22.415 6.32 22.425 6.35 22.425 6.39C22.425 6.44 22.405 6.48 22.365 6.51C22.325 6.54 22.265 6.56 22.195 6.56C22.135 6.56 22.085 6.56 22.045 6.53Z" fill="#444549"/>
<path d="M22.555 6.54V6.47C22.555 6.47 22.645 6.51 22.695 6.51C22.745 6.51 22.775 6.5 22.805 6.48C22.835 6.46 22.845 6.43 22.845 6.39C22.845 6.35 22.835 6.33 22.805 6.31C22.775 6.29 22.735 6.28 22.685 6.28C22.665 6.28 22.635 6.28 22.585 6.28V6.01H22.905V6.07H22.655V6.23C22.655 6.23 22.695 6.23 22.715 6.23C22.785 6.23 22.835 6.24 22.875 6.27C22.915 6.3 22.935 6.34 22.935 6.39C22.935 6.44 22.915 6.49 22.875 6.52C22.835 6.55 22.775 6.57 22.705 6.57C22.645 6.57 22.595 6.57 22.565 6.55L22.555 6.54Z" fill="#444549"/>
<path d="M23.065 6.54V6.47C23.065 6.47 23.155 6.51 23.205 6.51C23.255 6.51 23.285 6.5 23.315 6.48C23.345 6.46 23.355 6.43 23.355 6.39C23.355 6.35 23.345 6.33 23.315 6.31C23.285 6.29 23.245 6.28 23.195 6.28C23.175 6.28 23.145 6.28 23.095 6.28V6.01H23.415V6.07H23.165V6.23C23.165 6.23 23.205 6.23 23.225 6.23C23.295 6.23 23.345 6.24 23.385 6.27C23.425 6.3 23.445 6.34 23.445 6.39C23.445 6.44 23.425 6.49 23.385 6.52C23.345 6.55 23.285 6.57 23.215 6.57C23.155 6.57 23.105 6.57 23.075 6.55L23.065 6.54Z" fill="#444549"/>
<path d="M23.915 6.01V6.07C23.915 6.07 23.845 6.05 23.805 6.05C23.745 6.05 23.705 6.07 23.665 6.11C23.625 6.15 23.615 6.21 23.615 6.28C23.645 6.23 23.695 6.2 23.765 6.2C23.825 6.2 23.865 6.22 23.905 6.25C23.935 6.28 23.955 6.32 23.955 6.37C23.955 6.42 23.935 6.47 23.895 6.5C23.855 6.53 23.805 6.55 23.745 6.55C23.675 6.55 23.625 6.53 23.595 6.48C23.565 6.43 23.535 6.38 23.535 6.3C23.535 6.2 23.555 6.13 23.605 6.07C23.655 6.01 23.715 5.98 23.795 5.98C23.845 5.98 23.875 5.98 23.905 6L23.915 6.01ZM23.755 6.26C23.755 6.26 23.685 6.27 23.665 6.29C23.645 6.31 23.625 6.34 23.625 6.37C23.625 6.41 23.635 6.44 23.665 6.47C23.685 6.5 23.725 6.51 23.755 6.51C23.785 6.51 23.825 6.5 23.845 6.48C23.865 6.46 23.875 6.43 23.875 6.39C23.875 6.35 23.865 6.32 23.845 6.3C23.825 6.28 23.795 6.27 23.755 6.27V6.26Z" fill="#444549"/>
<path d="M24.235 6.56C24.175 6.56 24.115 6.54 24.085 6.49C24.045 6.44 24.035 6.38 24.035 6.29C24.035 6.19 24.055 6.12 24.095 6.07C24.135 6.02 24.185 6 24.255 6C24.395 6 24.455 6.09 24.455 6.28C24.455 6.37 24.435 6.44 24.395 6.49C24.355 6.54 24.305 6.56 24.235 6.56ZM24.245 6.05C24.155 6.05 24.105 6.13 24.105 6.29C24.105 6.44 24.155 6.51 24.245 6.51C24.335 6.51 24.385 6.43 24.385 6.28C24.385 6.13 24.345 6.05 24.255 6.05H24.245Z" fill="#444549"/>
<path d="M24.675 6.27C24.595 6.24 24.555 6.19 24.555 6.14C24.555 6.1 24.575 6.07 24.605 6.04C24.645 6.01 24.685 6 24.745 6C24.795 6 24.835 6.01 24.875 6.04C24.905 6.06 24.925 6.09 24.925 6.13C24.925 6.19 24.885 6.24 24.805 6.27C24.905 6.3 24.945 6.35 24.945 6.42C24.945 6.47 24.925 6.5 24.885 6.53C24.845 6.56 24.795 6.57 24.725 6.57C24.665 6.57 24.625 6.56 24.585 6.53C24.545 6.5 24.535 6.47 24.535 6.43C24.535 6.36 24.585 6.31 24.675 6.28V6.27ZM24.735 6.3C24.655 6.33 24.615 6.37 24.615 6.42C24.615 6.45 24.625 6.47 24.655 6.49C24.685 6.51 24.715 6.52 24.755 6.52C24.795 6.52 24.825 6.52 24.845 6.49C24.865 6.46 24.885 6.45 24.885 6.43C24.885 6.38 24.845 6.33 24.755 6.31L24.735 6.3ZM24.855 6.13C24.855 6.13 24.855 6.09 24.825 6.07C24.805 6.06 24.785 6.05 24.745 6.05C24.715 6.05 24.685 6.05 24.665 6.07C24.645 6.09 24.635 6.1 24.635 6.13C24.635 6.18 24.675 6.21 24.745 6.24C24.815 6.22 24.855 6.18 24.855 6.13Z" fill="#444549"/>
</g>
<defs>
<linearGradient id="paint0_linear_200_232" x1="25.06" y1="3.11" x2="6.93999" y2="28.89" gradientUnits="userSpaceOnUse">
<stop stop-color="#FDFAF1"/>
<stop offset="1" stop-color="#A29885"/>
</linearGradient>
<linearGradient id="paint1_linear_200_232" x1="25.02" y1="3.2" x2="7.03998" y2="28.78" gradientUnits="userSpaceOnUse">
<stop stop-color="#FFFBEC"/>
<stop offset="1" stop-color="#E1D1B7"/>
</linearGradient>
<linearGradient id="paint2_linear_200_232" x1="14.99" y1="6.46" x2="16.58" y2="3.84" gradientUnits="userSpaceOnUse">
<stop stop-color="#FDFAF1"/>
<stop offset="1" stop-color="#A29885"/>
</linearGradient>
<linearGradient id="paint3_linear_200_232" x1="32.2372" y1="19.0603" x2="31.8898" y2="26.6524" gradientUnits="userSpaceOnUse">
<stop offset="0.12" stop-color="#FFFBEC" stop-opacity="0.5"/>
<stop offset="0.68" stop-color="#FFEDD0" stop-opacity="0"/>
</linearGradient>
<clipPath id="clip0_200_232">
<rect width="19.4" height="26.84" fill="white" transform="translate(6.29999 2.58)"/>
</clipPath>
</defs>
</svg>
