<svg width="32" height="32" viewBox="0 0 32 32" fill="none" xmlns="http://www.w3.org/2000/svg">
<g clip-path="url(#clip0_199_107)">
<path d="M23.74 2.52H8.26001C7.16001 2.52 6.26001 3.46 6.26001 4.62V27.38C6.26001 28.54 7.16001 29.48 8.26001 29.48H23.74C24.84 29.48 25.74 28.54 25.74 27.38V4.62C25.74 3.46 24.84 2.52 23.74 2.52ZM15.78 6.34C15.11 6.34 14.57 5.77 14.57 5.07C14.57 4.37 15.11 3.8 15.78 3.8C16.45 3.8 16.99 4.37 16.99 5.07C16.99 5.77 16.45 6.34 15.78 6.34Z" fill="url(#paint0_linear_199_107)"/>
<path d="M23.7 2.6H8.36C7.27 2.6 6.38 3.53 6.38 4.68V27.29C6.38 28.44 7.27 29.37 8.36 29.37H23.7C24.79 29.37 25.68 28.44 25.68 27.29V4.68C25.68 3.53 24.79 2.6 23.7 2.6ZM15.81 6.4C15.15 6.4 14.61 5.83 14.61 5.14C14.61 4.45 15.15 3.88 15.81 3.88C16.47 3.88 17.01 4.45 17.01 5.14C17.01 5.83 16.47 6.4 15.81 6.4Z" fill="url(#paint1_linear_199_107)"/>
<path d="M6.33002 27.41C6.33002 28.5 7.19002 29.39 8.24002 29.39H23.71C24.77 29.39 25.62 28.5 25.62 27.41V17.61H6.33002V27.41Z" fill="#181646"/>
<path d="M23.69 2.65H8.35003C7.25003 2.65 6.37003 3.54 6.37003 4.63V5.53H14.63C14.56 5.36 14.53 5.2 14.53 5.02C14.53 4.33 15.09 3.76 15.79 3.76C16.49 3.76 17.05 4.32 17.05 5.02C17.05 5.2 17.01 5.36 16.95 5.52H25.67V4.63C25.67 3.54 24.78 2.65 23.69 2.65Z" fill="#181646"/>
<path d="M20.56 29.18H22.05L22.95 27.31H21.46L20.56 29.18Z" fill="#ECE2CC"/>
<path d="M9.14001 29.18H9.53001L10.43 27.31H10.04L9.14001 29.18Z" fill="#ECE2CC"/>
<path d="M14.23 29.18H14.42L15.32 27.31H15.13L14.23 29.18Z" fill="#ECE2CC"/>
<path d="M13.85 29.18H14.04L14.94 27.31H14.75L13.85 29.18Z" fill="#ECE2CC"/>
<path d="M12.54 29.18H12.73L13.63 27.31H13.44L12.54 29.18Z" fill="#ECE2CC"/>
<path d="M25.46 27.31H24.69L23.8 29.16C24.7 29.04 25.41 28.27 25.46 27.31Z" fill="#ECE2CC"/>
<path d="M7.83002 29.09L8.69002 27.31H7.19002L6.74002 28.24C6.98002 28.65 7.37002 28.95 7.82002 29.09H7.83002Z" fill="#ECE2CC"/>
<path d="M17.93 29.18H19.42L20.32 27.31H18.83L17.93 29.18Z" fill="#ECE2CC"/>
<path d="M15.07 29.18H17.58L18.48 27.31H15.96L15.07 29.18Z" fill="#ECE2CC"/>
<path d="M24.57 15.47H24.4V17.36H24.57V15.47Z" fill="#444549"/>
<path d="M24.15 15.47H23.98V17.36H24.15V15.47Z" fill="#444549"/>
<path d="M23.71 15.47H23.54V17.36H23.71V15.47Z" fill="#444549"/>
<path d="M13 3.95C13 3.95 12.98 3.93 12.98 3.92C12.98 3.92 12.96 3.9 12.95 3.9C12.95 3.9 12.93 3.89 12.92 3.88C12.92 3.88 12.97 3.86 12.99 3.85C13.01 3.84 13.03 3.82 13.04 3.81C13.05 3.79 13.06 3.77 13.07 3.75C13.07 3.73 13.08 3.71 13.08 3.68C13.08 3.65 13.08 3.62 13.06 3.6C13.05 3.58 13.03 3.56 13.01 3.54C12.99 3.52 12.97 3.51 12.94 3.5C12.91 3.5 12.88 3.49 12.85 3.49H12.64V4.21H12.72V3.9H12.79C12.79 3.9 12.82 3.9 12.83 3.9C12.84 3.9 12.85 3.9 12.87 3.92C12.88 3.92 12.89 3.94 12.9 3.95C12.91 3.96 12.92 3.98 12.93 4L13.05 4.2H13.15L13.02 3.98C13.02 3.98 13 3.95 12.99 3.94L13 3.95ZM12.9 3.82C12.9 3.82 12.86 3.82 12.84 3.82H12.73V3.56H12.85C12.85 3.56 12.93 3.57 12.96 3.59C12.98 3.61 13 3.64 13 3.68C13 3.7 13 3.72 12.99 3.74C12.99 3.76 12.97 3.77 12.96 3.78C12.95 3.79 12.93 3.8 12.91 3.81L12.9 3.82Z" fill="#CAC4B6"/>
<path d="M11.32 3.88H11.58V3.81H11.32V3.57H11.6V3.49H11.23V4.21H11.62V4.13H11.32V3.88Z" fill="#CAC4B6"/>
<path d="M9.73001 3.57H9.94001V4.21H10.02V3.57H10.23V3.49H9.73001V3.57Z" fill="#CAC4B6"/>
<path d="M8.64001 4C8.64001 4 8.64001 4.09 8.64001 4.11C8.64001 4.11 8.63001 4.09 8.61001 4.06L8.25001 3.5H8.14001V4.22H8.22001V3.7C8.22001 3.65 8.22001 3.62 8.22001 3.6C8.22001 3.6 8.23001 3.63 8.24001 3.65L8.61001 4.22H8.71001V3.5H8.63001V4.01L8.64001 4Z" fill="#CAC4B6"/>
<path d="M15.98 3.78L16.03 3.63C16.03 3.63 16.03 3.6 16.04 3.58C16.04 3.58 16.04 3.62 16.05 3.63L16.12 3.82C16.12 3.82 16.19 3.85 16.23 3.86L16.09 3.49H16L15.9 3.76C15.9 3.76 15.95 3.76 15.98 3.78Z" fill="#CAC4B6"/>
<path d="M7.05 3.49H6.97V4.21H7.05V3.49Z" fill="#CAC4B6"/>
<path d="M20.2 3.48C20.09 3.48 20.01 3.51 19.94 3.58C19.88 3.65 19.85 3.74 19.85 3.86C19.85 3.97 19.88 4.06 19.94 4.12C20 4.19 20.08 4.22 20.18 4.22C20.28 4.22 20.37 4.19 20.43 4.12C20.49 4.05 20.52 3.96 20.52 3.84C20.52 3.73 20.49 3.64 20.43 3.58C20.37 3.51 20.29 3.48 20.19 3.48H20.2ZM20.37 4.07C20.32 4.12 20.26 4.15 20.18 4.15C20.11 4.15 20.05 4.12 20 4.07C19.95 4.02 19.93 3.94 19.93 3.86C19.93 3.78 19.95 3.7 20 3.65C20.05 3.6 20.11 3.57 20.18 3.57C20.25 3.57 20.32 3.6 20.36 3.65C20.4 3.7 20.43 3.78 20.43 3.87C20.43 3.96 20.41 4.03 20.36 4.09L20.37 4.07Z" fill="#CAC4B6"/>
<path d="M23.42 3.49L23.14 4.21H23.23L23.3 4.01H23.6L23.68 4.21H23.77L23.49 3.49H23.4H23.42ZM23.34 3.93L23.45 3.62C23.45 3.62 23.45 3.59 23.46 3.57C23.46 3.57 23.46 3.61 23.47 3.62L23.58 3.93H23.33H23.34Z" fill="#CAC4B6"/>
<path d="M24.87 4.13V3.49H24.78V4.21H25.16V4.13H24.87Z" fill="#CAC4B6"/>
<path d="M22.06 4C22.06 4 22.06 4.09 22.06 4.11C22.06 4.11 22.05 4.09 22.03 4.06L21.67 3.5H21.56V4.22H21.64V3.7C21.64 3.65 21.64 3.62 21.64 3.6C21.64 3.6 21.65 3.63 21.66 3.65L22.03 4.22H22.13V3.5H22.05V4.01L22.06 4Z" fill="#CAC4B6"/>
<path d="M18.81 3.49H18.73V4.21H18.81V3.49Z" fill="#CAC4B6"/>
<path d="M14.26 3.64L14.63 4.21H14.73V3.49H14.65V4C14.65 4 14.65 4.09 14.65 4.11C14.65 4.11 14.64 4.09 14.62 4.06L14.26 3.5H14.15V4.22H14.23V3.7C14.23 3.65 14.23 3.62 14.23 3.6C14.23 3.6 14.24 3.63 14.25 3.65L14.26 3.64Z" fill="#CAC4B6"/>
<path d="M17.23 3.57H17.43V4.21H17.52V3.57H17.72V3.49H17.23V3.57Z" fill="#CAC4B6"/>
<path d="M15.79 3.83C15.1 3.83 14.53 4.4 14.53 5.1C14.53 5.8 15.09 6.37 15.79 6.37C16.49 6.37 17.05 5.8 17.05 5.1C17.05 4.4 16.49 3.83 15.79 3.83ZM15.79 6.31C15.13 6.31 14.59 5.77 14.59 5.1C14.59 4.43 15.13 3.89 15.79 3.89C16.45 3.89 16.99 4.43 16.99 5.1C16.99 5.77 16.45 6.31 15.79 6.31Z" fill="url(#paint2_linear_199_107)"/>
<path opacity="0.31" d="M6.50002 19.41V13.52C7.11002 13.79 7.83002 14.12 8.66002 14.52C9.98002 15.15 10.56 15.59 11.91 17.71C13.65 20.42 18.92 20.82 19.64 20.12C20.08 19.69 20.38 18.23 21.57 18.64C23.85 19.44 24.88 17.51 25.38 17.79V21.91C25.38 23.23 24.51 24.25 23.44 24.18L8.43002 21.92C7.36002 21.85 6.49002 20.73 6.49002 19.41H6.50002Z" fill="url(#paint3_linear_199_107)"/>
<path d="M10.72 24.46L10.21 22.4L10.23 26.52H9.07001V19.64H10.38L11.14 22.39L11.9 19.64H13.18V26.52L12.07 26.55L12.03 22.51L11.54 24.45H10.71L10.72 24.46Z" fill="#ECE2CC"/>
<path d="M17.2 26.52L16.96 24.89H15.65L15.37 26.52H14.12L15.43 19.64H17.19L18.51 26.52H17.2ZM16.77 23.7L16.34 20.8L15.85 23.7H16.77Z" fill="#ECE2CC"/>
<path d="M19.37 26.52V19.64H21.32C21.91 19.64 22.37 19.79 22.71 20.1C23.04 20.41 23.21 20.88 23.21 21.51V22.59C23.21 23.21 23.05 23.66 22.73 23.95C22.41 24.24 21.94 24.38 21.34 24.38H20.73V26.52H19.38H19.37ZM20.72 23.21H21.24C21.43 23.21 21.57 23.16 21.66 23.05C21.75 22.94 21.8 22.74 21.8 22.44V21.63C21.8 21.32 21.75 21.11 21.66 21C21.57 20.89 21.43 20.83 21.24 20.83H20.72V23.21Z" fill="#ECE2CC"/>
<path d="M9.38 19.34C9.26 19.34 9.18 19.31 9.12 19.25C9.06 19.19 9.03 19.11 9.03 18.99V18.64C9.03 18.52 9.06 18.44 9.12 18.38C9.18 18.32 9.26 18.29 9.38 18.29C9.5 18.29 9.58 18.32 9.63 18.38C9.68 18.44 9.71 18.53 9.72 18.66H9.48C9.48 18.59 9.47 18.53 9.46 18.51C9.45 18.48 9.42 18.47 9.38 18.47C9.34 18.47 9.31 18.48 9.3 18.51C9.28 18.54 9.28 18.59 9.28 18.66V18.96C9.28 19.03 9.28 19.08 9.3 19.11C9.31 19.14 9.34 19.15 9.38 19.15C9.42 19.15 9.44 19.14 9.46 19.11C9.48 19.08 9.48 19.03 9.49 18.95H9.73C9.73 19.09 9.7 19.18 9.64 19.24C9.59 19.3 9.5 19.33 9.39 19.33L9.38 19.34Z" fill="#ECE2CC"/>
<path d="M11 19.34C10.89 19.34 10.81 19.31 10.76 19.25C10.7 19.19 10.68 19.11 10.68 19V18.63C10.68 18.52 10.71 18.44 10.76 18.38C10.82 18.32 10.9 18.29 11 18.29C11.1 18.29 11.19 18.32 11.24 18.38C11.3 18.44 11.32 18.52 11.32 18.63V19C11.32 19.1 11.29 19.19 11.24 19.25C11.18 19.31 11.1 19.34 11 19.34ZM11 19.17C11 19.17 11.06 19.16 11.07 19.13C11.08 19.1 11.09 19.06 11.09 18.99V18.66C11.09 18.59 11.09 18.54 11.07 18.51C11.06 18.48 11.03 18.47 11 18.47C10.97 18.47 10.94 18.48 10.93 18.51C10.92 18.54 10.91 18.58 10.91 18.66V18.99C10.91 19.06 10.91 19.11 10.93 19.13C10.94 19.16 10.97 19.17 11 19.17Z" fill="#ECE2CC"/>
<path d="M12.56 19.02L12.47 18.67L12.5 19.33H12.29V18.31H12.5L12.63 18.78L12.76 18.31H12.96V19.33H12.75L12.78 18.69L12.7 19.03H12.56V19.02Z" fill="#ECE2CC"/>
<path d="M14.2 19.02L14.11 18.67L14.14 19.33H13.93V18.31H14.14L14.27 18.78L14.4 18.31H14.6V19.33H14.39L14.42 18.69L14.34 19.03H14.2V19.02Z" fill="#ECE2CC"/>
<path d="M15.91 19.34C15.8 19.34 15.71 19.31 15.66 19.25C15.61 19.19 15.58 19.1 15.58 18.97V18.3H15.82V18.96C15.82 19.03 15.82 19.08 15.84 19.11C15.85 19.14 15.88 19.15 15.91 19.15C15.94 19.15 15.97 19.14 15.98 19.11C15.99 19.08 16 19.04 16 18.96V18.3H16.24V18.97C16.24 19.09 16.21 19.19 16.16 19.25C16.11 19.31 16.02 19.34 15.91 19.34Z" fill="#ECE2CC"/>
<path d="M17.6 19.33L17.41 18.64V19.33H17.21V18.31H17.46L17.67 19.04V18.31H17.87V19.33H17.6Z" fill="#ECE2CC"/>
<path d="M18.85 19.33V19.15H19.06V18.48H18.85V18.3H19.51V18.48H19.3V19.15H19.51V19.33H18.85Z" fill="#ECE2CC"/>
<path d="M20.7 19.33V18.49H20.47V18.31H21.18V18.49H20.95V19.33H20.71H20.7Z" fill="#ECE2CC"/>
<path d="M22.57 19.33H22.33V18.95L22.08 18.31H22.31L22.45 18.71L22.59 18.31H22.82L22.57 18.95V19.33Z" fill="#ECE2CC"/>
<path d="M12.9 9.62L12.95 8.35C12.95 8.35 12.94 8.32 12.92 8.32L11.94 8.44C11.94 8.44 11.92 8.45 11.92 8.46L11.86 8.98C11.8 9.54 11.77 10.66 11.77 11.31C11.77 11.31 11.77 11.32 11.77 11.33C11.71 11.4 11.44 11.41 11.32 11.35C10.87 11.13 11.03 9.06 11.03 8.5C11.03 8.49 11.03 8.48 11.01 8.48L10.42 8.23C10.42 8.23 10.39 8.23 10.39 8.25L10.28 8.69C10.28 8.69 10.28 8.7 10.27 8.71C10.17 8.77 9.93 8.77 9.85 8.71C9.73 8.62 9.68 8.41 9.64 8.22C9.64 8.22 9.64 8.2 9.62 8.2C9.3 8.12 8.88 8.35 8.74 8.75C8.74 8.76 8.74 8.78 8.75 8.78C9.38 9.11 10.14 8.7 10.66 9.83C10.75 10.02 10.9 10.29 10.75 10.5C10.32 11.12 9.45 11.35 8.79 10.98C8.55 10.85 8.45 10.52 8.48 10.3C8.52 10.02 8.6 9.73 8.95 9.65C8.95 9.65 8.97 9.65 8.98 9.65L9.35 10.15C9.35 10.15 9.33 10.34 9.29 10.45C9.29 10.47 9.29 10.48 9.31 10.48C9.59 10.49 9.98 10.39 10.13 10.08C10.22 9.9 9.92 9.7 9.74 9.7C9.2 9.7 8.71 9.54 8.28 9.22C7.93 8.96 7.85 8.53 8.06 8.15C8.31 7.7 8.77 7.41 9.27 7.31C9.77 7.21 10.1 7.47 10.25 7.98C10.25 8 10.29 8.01 10.3 7.98L10.4 7.79C10.43 7.74 10.56 7.72 10.65 7.71C11.43 7.6 12.22 7.5 13.02 7.54C13.12 7.54 13.24 7.76 13.31 7.88C13.31 7.89 13.33 7.9 13.34 7.88C13.72 7.66 14.08 7.69 14.47 7.81C15.09 8.01 15.58 8.4 15.74 9.07C15.74 9.09 15.78 9.1 15.79 9.07C16.08 8.52 16.46 8.13 17.03 7.96C17.43 7.85 17.66 8.42 17.72 8.71C17.72 8.71 17.72 8.71 17.72 8.72C18.18 9.29 18.43 10.04 18.13 10.73C17.91 11.24 17.44 11.5 16.9 11.52C16.36 11.54 15.84 11.32 15.64 10.81C15.46 10.36 15.57 9.86 15.64 9.36C15.64 9.34 15.62 9.32 15.6 9.34L15.03 9.84C15 9.9 15.01 10.07 15.05 10.14C15.3 10.65 15.46 11.17 15.52 11.72C15.52 11.73 15.52 11.74 15.51 11.75C15.33 11.85 14.99 11.82 14.91 11.62C14.71 11.11 14.5 10.63 14.26 10.14C14.26 10.13 14.24 10.12 14.23 10.13L14.05 10.2C14.05 10.2 14.04 10.2 14.03 10.2L13.84 10.14C13.78 10.12 13.64 10.32 13.65 10.39L13.8 11.61C13.8 11.61 13.8 11.62 13.8 11.63C13.75 11.73 13.51 11.75 13.39 11.72C13.26 11.68 13.15 11.51 13.12 11.34C13 10.77 12.89 10.21 12.91 9.6L12.9 9.62ZM14.96 8.76C14.88 8.58 14.1 8.25 13.85 8.71C13.75 8.88 13.75 9.19 13.75 9.42C13.75 9.43 13.75 9.44 13.77 9.44C14.22 9.49 15.1 9.09 14.96 8.76ZM16.42 10.83C16.42 10.83 16.42 10.84 16.43 10.84C16.85 11.08 17.41 10.76 17.53 10.32C17.65 9.88 17.55 9.38 17.28 9.06C17.28 9.05 17.25 9.05 17.24 9.06L17.05 9.22C16.96 9.24 16.94 9.17 16.88 9.12C16.87 9.12 16.85 9.12 16.85 9.12C16.52 9.54 16.22 10.27 16.43 10.82L16.42 10.83Z" fill="black"/>
<path d="M11.07 14.37C11.07 14.37 11.06 14.37 11.06 14.39L10.8 15.64C10.78 15.72 10.83 15.9 10.84 16.02C10.84 16.03 10.84 16.04 10.83 16.05C10.69 16.11 10.34 16.14 10.23 16.02C10.03 15.81 9.98001 15.44 10.01 15.16C10.1 14.33 10.17 13.56 10.22 12.74C10.22 12.64 10.26 11.31 10.69 11.66C10.87 11.81 11.09 12.05 11.17 12.22C11.17 12.22 11.17 12.22 11.17 12.23L11.13 13.28C11.13 13.28 11.14 13.31 11.16 13.31L11.97 13.21C11.97 13.21 11.99 13.2 11.99 13.18C11.98 12.86 11.96 11.07 12.56 11.52C13.29 12.07 12.77 12.38 12.9 13.23C12.9 13.24 12.9 13.25 12.92 13.25C13.65 13.43 13.13 12.58 14.21 12.29C14.49 12.21 14.64 12.31 14.82 12.49C15.78 13.44 16.13 14.9 15.06 15.73C14.44 16.21 13.58 16.06 13.1 15.48C13.09 15.47 13.07 15.47 13.06 15.48C12.95 15.74 12.44 15.8 12.36 15.56C12.19 15.05 12.18 14.56 12.09 13.99C12.09 13.98 12.07 13.97 12.06 13.97C11.75 14.05 11.37 14.18 11.08 14.36L11.07 14.37ZM14.7 15.13C15.03 14.73 15.12 14.43 15.02 13.97C14.96 13.68 14.89 13.39 14.63 13.17C14.63 13.17 14.61 13.17 14.6 13.17C14.08 13.65 13.5 14.38 13.64 15.1C13.73 15.56 14.48 15.38 14.69 15.12L14.7 15.13Z" fill="black"/>
<path d="M16.66 16.14C16.54 16.19 16.22 16.12 16.12 16.06C15.87 15.89 16.08 14.79 16.08 14.13V12.77C16.08 12.68 16.27 12.52 16.35 12.51C16.45 12.51 16.59 12.63 16.66 12.71C16.95 13.05 16.87 13.31 16.84 13.69L16.73 15.36C16.73 15.36 16.75 15.39 16.76 15.39L17.84 15.04C17.84 15.04 17.86 15.03 17.86 15.01L17.64 12.69C17.64 12.6 17.7 12.41 17.76 12.36C17.83 12.3 18.06 12.29 18.1 12.36C18.18 12.49 18.32 12.71 18.41 12.82C18.41 12.82 18.42 12.82 18.43 12.82C19.16 12.79 19.87 12.81 20.52 13.07C20.88 13.21 21.05 13.48 21.11 13.85C21.15 14.08 21.12 14.36 20.93 14.53L19.16 16.08C19.04 16.19 18.93 16.36 18.79 16.34C18.65 16.32 18.54 16.16 18.45 16.01C18.45 16.01 18.45 16.01 18.44 16.01L17.82 15.7C17.82 15.7 17.81 15.7 17.8 15.7L16.66 16.16V16.14ZM19.7 14.69L20.54 13.93C20.54 13.93 20.55 13.91 20.54 13.9C20.2 13.46 18.91 13.51 18.49 13.62C18.48 13.62 18.47 13.63 18.47 13.65L18.54 15.66C18.54 15.66 18.57 15.69 18.58 15.68L19.7 14.7V14.69Z" fill="black"/>
<path d="M20.74 9.09C20.61 10.05 20.86 10.78 20.51 11.42C20.51 11.42 20.51 11.42 20.5 11.43C19.95 11.77 19.72 11.17 19.32 10.76C19.31 10.75 19.28 10.76 19.28 10.76C19.13 11.17 19.28 11.21 19.19 11.63C19.18 11.68 18.78 11.72 18.65 11.61C18.32 11.34 18.53 9.05 18.5 8.68L18.47 8.33C18.47 8.25 18.7 8.17 18.76 8.22C18.89 8.31 19.14 8.51 19.23 8.64C19.86 9.62 19.56 9.93 19.96 10.64C19.97 10.66 20 10.66 20.01 10.64C20.09 10.17 19.77 7.59 20.6 8.53L20.81 8.76C20.86 8.82 20.76 8.96 20.74 9.09Z" fill="black"/>
<path d="M23.13 10.37L23.48 10.78C23.48 10.78 23.48 10.78 23.48 10.79L23.69 12.59C23.69 12.59 23.69 12.6 23.69 12.61C23.58 12.75 23.13 12.76 23.09 12.58L22.86 11.53C22.86 11.53 22.84 11.51 22.82 11.51C22.31 11.75 21.73 11.83 21.38 11.38C21.06 10.96 20.97 10.23 21.17 9.74C21.44 9.09 22.06 8.71 22.72 8.53C22.72 8.53 22.74 8.53 22.75 8.53L23.09 8.94C23.09 8.94 23.16 9.13 23.14 9.17C23.03 9.43 21.49 9.64 21.98 11.02C21.98 11.02 21.98 11.03 22 11.04C22.26 11.13 22.64 10.84 22.65 10.56C22.65 10.46 22.75 10.31 22.82 10.28C22.89 10.25 23.06 10.3 23.12 10.37H23.13Z" fill="black"/>
<path d="M21.935 6.03L21.675 6.56H21.595L21.835 6.07H21.505V6.01H21.925V6.03H21.935Z" fill="#444549"/>
<path d="M22.045 6.53V6.46C22.045 6.46 22.135 6.5 22.195 6.5C22.245 6.5 22.275 6.5 22.305 6.47C22.335 6.45 22.345 6.43 22.345 6.39C22.345 6.32 22.285 6.28 22.165 6.28H22.115V6.23H22.165C22.275 6.23 22.325 6.2 22.325 6.13C22.325 6.07 22.285 6.04 22.205 6.04C22.155 6.04 22.115 6.05 22.075 6.08V6.02C22.075 6.02 22.165 5.99 22.225 5.99C22.285 5.99 22.325 6 22.355 6.03C22.385 6.06 22.405 6.09 22.405 6.12C22.405 6.19 22.365 6.24 22.275 6.26C22.275 6.26 22.355 6.28 22.385 6.3C22.415 6.32 22.425 6.35 22.425 6.39C22.425 6.44 22.405 6.48 22.365 6.51C22.325 6.54 22.265 6.56 22.195 6.56C22.135 6.56 22.085 6.56 22.045 6.53Z" fill="#444549"/>
<path d="M22.555 6.54V6.47C22.555 6.47 22.645 6.51 22.695 6.51C22.745 6.51 22.775 6.5 22.805 6.48C22.835 6.46 22.845 6.43 22.845 6.39C22.845 6.35 22.835 6.33 22.805 6.31C22.775 6.29 22.735 6.28 22.685 6.28C22.665 6.28 22.635 6.28 22.585 6.28V6.01H22.905V6.07H22.655V6.23C22.655 6.23 22.695 6.23 22.715 6.23C22.785 6.23 22.835 6.24 22.875 6.27C22.915 6.3 22.935 6.34 22.935 6.39C22.935 6.44 22.915 6.49 22.875 6.52C22.835 6.55 22.775 6.57 22.705 6.57C22.645 6.57 22.595 6.57 22.565 6.55L22.555 6.54Z" fill="#444549"/>
<path d="M23.065 6.54V6.47C23.065 6.47 23.155 6.51 23.205 6.51C23.255 6.51 23.285 6.5 23.315 6.48C23.345 6.46 23.355 6.43 23.355 6.39C23.355 6.35 23.345 6.33 23.315 6.31C23.285 6.29 23.245 6.28 23.195 6.28C23.175 6.28 23.145 6.28 23.095 6.28V6.01H23.415V6.07H23.165V6.23C23.165 6.23 23.205 6.23 23.225 6.23C23.295 6.23 23.345 6.24 23.385 6.27C23.425 6.3 23.445 6.34 23.445 6.39C23.445 6.44 23.425 6.49 23.385 6.52C23.345 6.55 23.285 6.57 23.215 6.57C23.155 6.57 23.105 6.57 23.075 6.55L23.065 6.54Z" fill="#444549"/>
<path d="M23.915 6.01V6.07C23.915 6.07 23.845 6.05 23.805 6.05C23.745 6.05 23.705 6.07 23.665 6.11C23.625 6.15 23.615 6.21 23.615 6.28C23.645 6.23 23.695 6.2 23.765 6.2C23.825 6.2 23.865 6.22 23.905 6.25C23.935 6.28 23.955 6.32 23.955 6.37C23.955 6.42 23.935 6.47 23.895 6.5C23.855 6.53 23.805 6.55 23.745 6.55C23.675 6.55 23.625 6.53 23.595 6.48C23.565 6.43 23.535 6.38 23.535 6.3C23.535 6.2 23.555 6.13 23.605 6.07C23.655 6.01 23.715 5.98 23.795 5.98C23.845 5.98 23.875 5.98 23.905 6L23.915 6.01ZM23.755 6.26C23.755 6.26 23.685 6.27 23.665 6.29C23.645 6.31 23.625 6.34 23.625 6.37C23.625 6.41 23.635 6.44 23.665 6.47C23.685 6.5 23.725 6.51 23.755 6.51C23.785 6.51 23.825 6.5 23.845 6.48C23.865 6.46 23.875 6.43 23.875 6.39C23.875 6.35 23.865 6.32 23.845 6.3C23.825 6.28 23.795 6.27 23.755 6.27V6.26Z" fill="#444549"/>
<path d="M24.235 6.56C24.175 6.56 24.115 6.54 24.085 6.49C24.045 6.44 24.035 6.38 24.035 6.29C24.035 6.19 24.055 6.12 24.095 6.07C24.135 6.02 24.185 6 24.255 6C24.395 6 24.455 6.09 24.455 6.28C24.455 6.37 24.435 6.44 24.395 6.49C24.355 6.54 24.305 6.56 24.235 6.56ZM24.245 6.05C24.155 6.05 24.105 6.13 24.105 6.29C24.105 6.44 24.155 6.51 24.245 6.51C24.335 6.51 24.385 6.43 24.385 6.28C24.385 6.13 24.345 6.05 24.255 6.05H24.245Z" fill="#444549"/>
<path d="M24.675 6.27C24.595 6.24 24.555 6.19 24.555 6.14C24.555 6.1 24.575 6.07 24.605 6.04C24.645 6.01 24.685 6 24.745 6C24.795 6 24.835 6.01 24.875 6.04C24.905 6.06 24.925 6.09 24.925 6.13C24.925 6.19 24.885 6.24 24.805 6.27C24.905 6.3 24.945 6.35 24.945 6.42C24.945 6.47 24.925 6.5 24.885 6.53C24.845 6.56 24.795 6.57 24.725 6.57C24.665 6.57 24.625 6.56 24.585 6.53C24.545 6.5 24.535 6.47 24.535 6.43C24.535 6.36 24.585 6.31 24.675 6.28V6.27ZM24.735 6.3C24.655 6.33 24.615 6.37 24.615 6.42C24.615 6.45 24.625 6.47 24.655 6.49C24.685 6.51 24.715 6.52 24.755 6.52C24.795 6.52 24.825 6.52 24.845 6.49C24.865 6.46 24.885 6.45 24.885 6.43C24.885 6.38 24.845 6.33 24.755 6.31L24.735 6.3ZM24.855 6.13C24.855 6.13 24.855 6.09 24.825 6.07C24.805 6.06 24.785 6.05 24.745 6.05C24.715 6.05 24.685 6.05 24.665 6.07C24.645 6.09 24.635 6.1 24.635 6.13C24.635 6.18 24.675 6.21 24.745 6.24C24.815 6.22 24.855 6.18 24.855 6.13Z" fill="#444549"/>
</g>
<defs>
<linearGradient id="paint0_linear_199_107" x1="25.1" y1="3.05" x2="6.90001" y2="28.95" gradientUnits="userSpaceOnUse">
<stop stop-color="#FDFAF1"/>
<stop offset="1" stop-color="#A29885"/>
</linearGradient>
<linearGradient id="paint1_linear_199_107" x1="25.07" y1="3.14" x2="7" y2="28.84" gradientUnits="userSpaceOnUse">
<stop stop-color="#FFFBEC"/>
<stop offset="1" stop-color="#E1D1B7"/>
</linearGradient>
<linearGradient id="paint2_linear_199_107" x1="14.99" y1="6.41" x2="16.59" y2="3.79" gradientUnits="userSpaceOnUse">
<stop stop-color="#FDFAF1"/>
<stop offset="1" stop-color="#A29885"/>
</linearGradient>
<linearGradient id="paint3_linear_199_107" x1="32.2878" y1="17.8974" x2="31.939" y2="25.5195" gradientUnits="userSpaceOnUse">
<stop offset="0.12" stop-color="#FFFBEC" stop-opacity="0.5"/>
<stop offset="0.68" stop-color="#FFEDD0" stop-opacity="0"/>
</linearGradient>
<clipPath id="clip0_199_107">
<rect width="19.48" height="26.96" fill="white" transform="translate(6.26001 2.52)"/>
</clipPath>
</defs>
</svg>
